<svg width="36" height="36" viewBox="0 0 36 36" fill="none" xmlns="http://www.w3.org/2000/svg">
<path d="M17.37 7.16405C18.4125 4.50905 18.9345 3.18005 20.0235 3.01655C21.1125 2.85155 22.0485 3.96155 23.9235 6.18005L24.408 6.75305C24.9405 7.38305 25.206 7.69805 25.569 7.87805C25.929 8.05805 26.346 8.08355 27.18 8.13305L27.939 8.17655C30.8715 8.34755 32.337 8.43455 32.8455 9.39155C33.3555 10.3515 32.5695 11.5485 30.999 13.941L30.5925 14.5605C30.1455 15.24 29.922 15.5805 29.862 15.969C29.802 16.3575 29.9115 16.749 30.1305 17.5335L30.33 18.2491C31.0995 21.0121 31.485 22.392 30.7095 23.1481C29.934 23.9056 28.512 23.535 25.668 22.7955L24.933 22.605C24.123 22.3951 23.7195 22.29 23.3205 22.35C22.9215 22.41 22.572 22.6276 21.8745 23.0641L21.2385 23.4615C18.7815 24.9975 17.5545 25.7656 16.566 25.2736C15.5775 24.7831 15.486 23.358 15.2985 20.508L15.249 19.7701C15.1965 18.96 15.1695 18.555 14.9835 18.204C14.7975 17.853 14.4735 17.595 13.8225 17.079L13.23 16.611C10.941 14.7976 9.79495 13.89 9.95995 12.831C10.125 11.772 11.49 11.2605 14.2185 10.2375L14.9235 9.97355C15.7005 9.68255 16.0875 9.53855 16.371 9.26105C16.656 8.98355 16.803 8.60555 17.1 7.85105L17.37 7.16405Z" fill="#20B2AA"/>
<path opacity="0.5" d="M7.96493 14.3895C4.30943 17.88 1.91243 23.709 3.49643 33C4.91093 29.0955 8.78543 25.86 13.3679 23.9295C13.2089 23.04 13.1369 21.954 13.0619 20.8095L13.0034 19.917C12.9895 19.7019 12.9735 19.4869 12.9554 19.272L12.8264 19.1655L12.4244 18.843L11.7119 18.279C10.6709 17.454 9.70193 16.689 9.03743 15.981C8.65793 15.5775 8.23343 15.045 7.96493 14.3895ZM15.5204 23.1345L15.4979 22.9635L15.5819 23.115L15.5204 23.1345Z" fill="#20B2AA"/>
</svg>
