<svg width="36" height="36" viewBox="0 0 36 36" fill="none" xmlns="http://www.w3.org/2000/svg">
<path d="M5.25 28.5C5.84674 28.5 6.41903 28.7371 6.84099 29.159C7.26295 29.581 7.5 30.1533 7.5 30.75C7.5 31.3467 7.26295 31.919 6.84099 32.341C6.41903 32.7629 5.84674 33 5.25 33C4.65326 33 4.08097 32.7629 3.65901 32.341C3.23705 31.919 3 31.3467 3 30.75C3 30.1533 3.23705 29.581 3.65901 29.159C4.08097 28.7371 4.65326 28.5 5.25 28.5ZM12.75 24C13.7446 24 14.6984 24.3951 15.4017 25.0984C16.1049 25.8016 16.5 26.7554 16.5 27.75C16.5 28.7446 16.1049 29.6984 15.4017 30.4016C14.6984 31.1049 13.7446 31.5 12.75 31.5C11.7554 31.5 10.8016 31.1049 10.0983 30.4016C9.39509 29.6984 9 28.7446 9 27.75C9 26.7554 9.39509 25.8016 10.0983 25.0984C10.8016 24.3951 11.7554 24 12.75 24ZM21.75 22.5C19.965 22.5 18.345 21.75 17.25 20.475C16.155 21.75 14.535 22.5 12.75 22.5C9.81 22.5 7.365 20.385 6.855 17.61C5.7222 17.1719 4.74809 16.402 4.06024 15.401C3.37238 14.4 3.00284 13.2146 3 12C3 10.4087 3.63214 8.88258 4.75736 7.75736C5.88258 6.63214 7.4087 6 9 6C9.39 6 9.75 6.045 10.155 6.105C11.25 5.115 12.675 4.5 14.25 4.5C16.035 4.5 17.655 5.25 18.75 6.525C19.845 5.25 21.465 4.5 23.25 4.5C26.19 4.5 28.635 6.615 29.145 9.39C30.2778 9.82808 31.2519 10.598 31.9398 11.599C32.6276 12.6 32.9972 13.7854 33 15C33 16.5913 32.3679 18.1174 31.2426 19.2426C30.1174 20.3679 28.5913 21 27 21L25.845 20.895C24.75 21.885 23.325 22.5 21.75 22.5Z" fill="#20B2AA"/>
</svg>
