<svg width="24" height="24" viewBox="0 0 24 24" fill="none" xmlns="http://www.w3.org/2000/svg">
<path fill-rule="evenodd" clip-rule="evenodd" d="M12 0C5.3728 0 0 5.3728 0 12C0 18.6272 5.3728 24 12 24C18.6272 24 24 18.6272 24 12C24 5.3728 18.6272 0 12 0Z" fill="#FF5D4D"/>
<path fill-rule="evenodd" clip-rule="evenodd" d="M14.4458 8.7152L12.9472 5.8256C12.5488 5.05813 11.4512 5.05813 11.0528 5.8256L9.5541 8.7152L6.3765 9.34133C5.56423 9.50133 5.2357 10.4853 5.7893 11.1013L8.04263 13.6069L7.62877 16.9605C7.52423 17.8053 8.4021 18.4256 9.1637 18.0459L12 16.6293L14.8362 18.0453C15.5973 18.4251 16.4752 17.8048 16.3712 16.96L15.9573 13.6064L18.2106 11.1003C18.7642 10.4848 18.4357 9.50027 17.624 9.34027L14.4453 8.71467L14.4458 8.7152Z" fill="#FFA07A"/>
</svg>
