<svg width="14" height="18" viewBox="0 0 14 18" fill="none" xmlns="http://www.w3.org/2000/svg">
<path d="M1.66667 17.5C1.20833 17.5 0.816111 17.3369 0.49 17.0108C0.163889 16.6847 0.000555556 16.2922 0 15.8333V7.5C0 7.04167 0.163333 6.64945 0.49 6.32333C0.816666 5.99722 1.20889 5.83389 1.66667 5.83333H2.5V4.16667C2.5 3.01389 2.90639 2.03139 3.71917 1.21917C4.53194 0.406945 5.51444 0.000556124 6.66667 5.68828e-07C7.81889 -0.000554987 8.80167 0.405834 9.615 1.21917C10.4283 2.0325 10.8344 3.015 10.8333 4.16667V5.83333H11.6667C12.125 5.83333 12.5175 5.99667 12.8442 6.32333C13.1708 6.65 13.3339 7.04222 13.3333 7.5V15.8333C13.3333 16.2917 13.1703 16.6842 12.8442 17.0108C12.5181 17.3375 12.1256 17.5006 11.6667 17.5H1.66667ZM6.66667 13.3333C7.125 13.3333 7.5175 13.1703 7.84417 12.8442C8.17083 12.5181 8.33389 12.1256 8.33333 11.6667C8.33278 11.2078 8.16972 10.8156 7.84417 10.49C7.51861 10.1644 7.12611 10.0011 6.66667 10C6.20722 9.99889 5.815 10.1622 5.49 10.49C5.165 10.8178 5.00167 11.21 5 11.6667C4.99833 12.1233 5.16167 12.5158 5.49 12.8442C5.81833 13.1725 6.21056 13.3356 6.66667 13.3333ZM4.16667 5.83333H9.16667V4.16667C9.16667 3.47222 8.92361 2.88195 8.4375 2.39583C7.95139 1.90972 7.36111 1.66667 6.66667 1.66667C5.97222 1.66667 5.38194 1.90972 4.89583 2.39583C4.40972 2.88195 4.16667 3.47222 4.16667 4.16667V5.83333Z" fill="white"/>
</svg>
