<svg width="30" height="30" viewBox="0 0 30 30" fill="none" xmlns="http://www.w3.org/2000/svg">
<path fill-rule="evenodd" clip-rule="evenodd" d="M11.0564 9.88125C11.2322 10.0568 11.4705 10.1554 11.7189 10.1554C11.9673 10.1554 12.2056 10.0568 12.3814 9.88125L14.5314 7.73125V17.9687C14.5314 18.2174 14.6302 18.4558 14.806 18.6317C14.9818 18.8075 15.2203 18.9062 15.4689 18.9062C15.7175 18.9062 15.956 18.8075 16.1318 18.6317C16.3076 18.4558 16.4064 18.2174 16.4064 17.9687V7.73125L18.5564 9.88125C18.6422 9.97336 18.7457 10.0472 18.8607 10.0985C18.9757 10.1497 19.0999 10.1773 19.2257 10.1795C19.3516 10.1817 19.4767 10.1586 19.5934 10.1114C19.7101 10.0643 19.8162 9.99407 19.9052 9.90505C19.9942 9.81602 20.0644 9.70998 20.1116 9.59325C20.1587 9.47651 20.1819 9.35147 20.1796 9.2256C20.1774 9.09972 20.1499 8.97558 20.0986 8.86058C20.0474 8.74558 19.9735 8.64208 19.8814 8.55625L16.1314 4.80625C15.9556 4.63069 15.7173 4.53207 15.4689 4.53207C15.2205 4.53207 14.9822 4.63069 14.8064 4.80625L11.0564 8.55625C10.8808 8.73203 10.7822 8.97031 10.7822 9.21875C10.7822 9.46719 10.8808 9.70547 11.0564 9.88125Z" fill="#FF6F61"/>
<path d="M15.4688 25.4688C18.1209 25.4688 20.6645 24.4152 22.5398 22.5398C24.4152 20.6645 25.4688 18.1209 25.4688 15.4688H20.7812C19.6025 15.4688 19.0138 15.4688 18.6475 15.835C18.2812 16.2013 18.2812 16.79 18.2812 17.9688C18.2812 18.7147 17.9849 19.43 17.4575 19.9575C16.93 20.4849 16.2147 20.7812 15.4688 20.7812C14.7228 20.7812 14.0075 20.4849 13.48 19.9575C12.9526 19.43 12.6562 18.7147 12.6562 17.9688C12.6562 16.79 12.6562 16.2013 12.29 15.835C11.9237 15.4688 11.335 15.4688 10.1562 15.4688H5.46875C5.46875 18.1209 6.52232 20.6645 8.39768 22.5398C10.273 24.4152 12.8166 25.4688 15.4688 25.4688Z" fill="#FF6F61"/>
</svg>
