<svg width="36" height="36" viewBox="0 0 36 36" fill="none" xmlns="http://www.w3.org/2000/svg">
<path d="M4.5 25.5C4.5 26.6935 4.97411 27.8381 5.81802 28.682C6.66193 29.5259 7.80653 30 9 30C10.1935 30 11.3381 29.5259 12.182 28.682C13.0259 27.8381 13.5 26.6935 13.5 25.5C13.5 24.3065 13.0259 23.1619 12.182 22.318C11.3381 21.4741 10.1935 21 9 21C7.80653 21 6.66193 21.4741 5.81802 22.318C4.97411 23.1619 4.5 24.3065 4.5 25.5ZM19.5 25.5C19.5 26.6935 19.9741 27.8381 20.818 28.682C21.6619 29.5259 22.8065 30 24 30C25.1935 30 26.3381 29.5259 27.182 28.682C28.0259 27.8381 28.5 26.6935 28.5 25.5C28.5 24.3065 28.0259 23.1619 27.182 22.318C26.3381 21.4741 25.1935 21 24 21C22.8065 21 21.6619 21.4741 20.818 22.318C19.9741 23.1619 19.5 24.3065 19.5 25.5Z" stroke="#926EF8" stroke-width="2" stroke-linecap="round" stroke-linejoin="round"/>
<path d="M13.5 25.5V6H28.5V25.5M13.5 12H28.5" stroke="#926EF8" stroke-width="2" stroke-linecap="round" stroke-linejoin="round"/>
</svg>
