<svg width="17" height="28" viewBox="0 0 17 28" fill="none" xmlns="http://www.w3.org/2000/svg">
<path d="M13.125 0H3.125C2.2962 0 1.50134 0.32924 0.915291 0.915291C0.32924 1.50134 0 2.2962 0 3.125V24.375C0 25.2038 0.32924 25.9987 0.915291 26.5847C1.50134 27.1708 2.2962 27.5 3.125 27.5H13.125C13.9538 27.5 14.7487 27.1708 15.3347 26.5847C15.9208 25.9987 16.25 25.2038 16.25 24.375V3.125C16.25 2.2962 15.9208 1.50134 15.3347 0.915291C14.7487 0.32924 13.9538 0 13.125 0ZM8.125 26.25C7.0875 26.25 6.25 25.4125 6.25 24.375C6.25 23.3375 7.0875 22.5 8.125 22.5C9.1625 22.5 10 23.3375 10 24.375C10 25.4125 9.1625 26.25 8.125 26.25ZM13.75 21.25H2.5V3.75H13.75V21.25Z" fill="#FF6F61"/>
</svg>
