<svg width="36" height="36" viewBox="0 0 36 36" fill="none" xmlns="http://www.w3.org/2000/svg">
<path d="M10.5 18V19.5H25.5V18C25.5 16.8083 25.9727 15.6653 26.8143 14.8217C27.6559 13.9781 28.7978 13.5028 29.9895 13.5C29.9878 13.1077 29.9527 12.7163 29.8845 12.33C29.653 11.166 29.0816 10.0968 28.2424 9.25763C27.4032 8.41844 26.334 7.84698 25.17 7.6155C24.591 7.5 23.895 7.5 22.5 7.5H13.5C12.105 7.5 11.409 7.5 10.83 7.6155C9.66601 7.84698 8.59681 8.41844 7.75762 9.25763C6.91844 10.0968 6.34697 11.166 6.1155 12.33C6.0473 12.7163 6.01218 13.1077 6.0105 13.5C7.20215 13.5028 8.34405 13.9781 9.18569 14.8217C10.0273 15.6653 10.5 16.8083 10.5 18Z" fill="#926EF8"/>
<path d="M27.666 27H8.334C7.92709 26.9997 7.52152 26.9534 7.125 26.862V28.5C7.125 28.7984 7.00648 29.0845 6.7955 29.2955C6.58452 29.5065 6.29837 29.625 6 29.625C5.70163 29.625 5.41548 29.5065 5.20451 29.2955C4.99353 29.0845 4.875 28.7984 4.875 28.5V25.7265C4.28671 25.2261 3.8143 24.6038 3.49053 23.9026C3.16676 23.2015 2.99938 22.4383 3 21.666V18C3 17.2044 3.31607 16.4413 3.87868 15.8787C4.44129 15.3161 5.20435 15 6 15C6.79565 15 7.55871 15.3161 8.12132 15.8787C8.68393 16.4413 9 17.2044 9 18V19.8C9 20.1183 9.12643 20.4235 9.35147 20.6485C9.57652 20.8736 9.88174 21 10.2 21H25.8C26.1183 21 26.4235 20.8736 26.6485 20.6485C26.8736 20.4235 27 20.1183 27 19.8V18C27 17.2044 27.3161 16.4413 27.8787 15.8787C28.4413 15.3161 29.2044 15 30 15C30.7957 15 31.5587 15.3161 32.1213 15.8787C32.6839 16.4413 33 17.2044 33 18V21.666C33.0006 22.4383 32.8332 23.2015 32.5095 23.9026C32.1857 24.6038 31.7133 25.2261 31.125 25.7265V28.5C31.125 28.7984 31.0065 29.0845 30.7955 29.2955C30.5845 29.5065 30.2984 29.625 30 29.625C29.7016 29.625 29.4155 29.5065 29.2045 29.2955C28.9935 29.0845 28.875 28.7984 28.875 28.5V26.862C28.4785 26.9534 28.0729 26.9997 27.666 27Z" fill="#926EF8"/>
</svg>
