<svg width="36" height="36" viewBox="0 0 36 36" fill="none" xmlns="http://www.w3.org/2000/svg">
<path d="M18 33C17.35 33 16.7625 32.844 16.2375 32.532C15.7125 32.22 15.3 31.801 15 31.275C14.175 31.275 13.469 30.9815 12.882 30.3945C12.295 29.8075 12.001 29.101 12 28.275V22.95C10.525 21.975 9.3435 20.6875 8.4555 19.0875C7.5675 17.4875 7.124 15.75 7.125 13.875C7.125 10.85 8.1815 8.2815 10.2945 6.1695C12.4075 4.0575 14.976 3.001 18 3C21.024 2.999 23.593 4.0555 25.707 6.1695C27.821 8.2835 28.877 10.852 28.875 13.875C28.875 15.8 28.431 17.55 27.543 19.125C26.655 20.7 25.474 21.975 24 22.95V28.275C24 29.1 23.7065 29.8065 23.1195 30.3945C22.5325 30.9825 21.826 31.276 21 31.275C20.7 31.8 20.2875 32.219 19.7625 32.532C19.2375 32.845 18.65 33.001 18 33ZM15 28.275H21V26.925H15V28.275ZM15 25.425H21V24H15V25.425ZM19.125 21V16.95L22.425 13.65L20.85 12.075L18 14.925L15.15 12.075L13.575 13.65L16.875 16.95V21H19.125Z" fill="#20B2AA"/>
</svg>
