<svg width="18" height="18" viewBox="0 0 18 18" fill="none" xmlns="http://www.w3.org/2000/svg">
<path d="M4.5 1.8C4.5 1.32261 4.68964 0.864773 5.02721 0.527208C5.36477 0.189642 5.82261 0 6.3 0H11.7C12.1774 0 12.6352 0.189642 12.9728 0.527208C13.3104 0.864773 13.5 1.32261 13.5 1.8V3.6H17.1C17.3387 3.6 17.5676 3.69482 17.7364 3.8636C17.9052 4.03239 18 4.2613 18 4.5C18 4.73869 17.9052 4.96761 17.7364 5.1364C17.5676 5.30518 17.3387 5.4 17.1 5.4H16.1379L15.3576 16.3278C15.3253 16.7819 15.1221 17.2069 14.7889 17.5172C14.4557 17.8275 14.0174 18 13.5621 18H4.437C3.98173 18 3.54336 17.8275 3.2102 17.5172C2.87703 17.2069 2.67382 16.7819 2.6415 16.3278L1.863 5.4H0.9C0.661305 5.4 0.432387 5.30518 0.263604 5.1364C0.0948211 4.96761 0 4.73869 0 4.5C0 4.2613 0.0948211 4.03239 0.263604 3.8636C0.432387 3.69482 0.661305 3.6 0.9 3.6H4.5V1.8ZM6.3 3.6H11.7V1.8H6.3V3.6ZM3.6666 5.4L4.4379 16.2H13.563L14.3343 5.4H3.6666Z" fill="#FFA07A"/>
</svg>
