<svg width="14" height="14" viewBox="0 0 14 14" fill="none" xmlns="http://www.w3.org/2000/svg">
<path d="M6.66667 0C10.3487 0 13.3333 2.98467 13.3333 6.66667C13.3333 10.3487 10.3487 13.3333 6.66667 13.3333C2.98467 13.3333 0 10.3487 0 6.66667C0 2.98467 2.98467 0 6.66667 0ZM6.66667 2.66667C6.48986 2.66667 6.32029 2.7369 6.19526 2.86193C6.07024 2.98695 6 3.15652 6 3.33333V6.66667C6.00004 6.84346 6.0703 7.013 6.19533 7.138L8.19533 9.138C8.32107 9.25944 8.48947 9.32663 8.66427 9.32512C8.83906 9.3236 9.00627 9.25348 9.12988 9.12988C9.25348 9.00627 9.3236 8.83906 9.32512 8.66427C9.32663 8.48947 9.25944 8.32107 9.138 8.19533L7.33333 6.39067V3.33333C7.33333 3.15652 7.26309 2.98695 7.13807 2.86193C7.01305 2.7369 6.84348 2.66667 6.66667 2.66667Z" fill="url(#paint0_linear_50_1569)"/>
<defs>
<linearGradient id="paint0_linear_50_1569" x1="6.66667" y1="0" x2="6.66667" y2="13.3333" gradientUnits="userSpaceOnUse">
<stop stop-color="#FFCE65"/>
<stop offset="1" stop-color="#F77D4E"/>
</linearGradient>
</defs>
</svg>
