<svg width="44" height="44" viewBox="0 0 44 44" fill="none" xmlns="http://www.w3.org/2000/svg">
<rect x="0.25" y="0.25" width="43.5" height="43.5" rx="21.75" fill="#FF5D4D"/>
<rect x="0.25" y="0.25" width="43.5" height="43.5" rx="21.75" stroke="white" stroke-width="0.5"/>
<path d="M12.5 22C12.5 17.522 12.5 15.282 13.891 13.891C15.282 12.5 17.521 12.5 22 12.5C26.478 12.5 28.718 12.5 30.109 13.891C31.5 15.282 31.5 17.521 31.5 22C31.5 26.478 31.5 28.718 30.109 30.109C28.718 31.5 26.479 31.5 22 31.5C17.522 31.5 15.282 31.5 13.891 30.109C12.5 28.718 12.5 26.479 12.5 22Z" stroke="white" stroke-width="1.5" stroke-linejoin="round"/>
<path d="M18.5 20C18.1022 20 17.7206 19.842 17.4393 19.5607C17.158 19.2794 17 18.8978 17 18.5C17 18.1022 17.158 17.7206 17.4393 17.4393C17.7206 17.158 18.1022 17 18.5 17C18.8978 17 19.2794 17.158 19.5607 17.4393C19.842 17.7206 20 18.1022 20 18.5C20 18.8978 19.842 19.2794 19.5607 19.5607C19.2794 19.842 18.8978 20 18.5 20ZM25.5 27C25.8978 27 26.2794 26.842 26.5607 26.5607C26.842 26.2794 27 25.8978 27 25.5C27 25.1022 26.842 24.7206 26.5607 24.4393C26.2794 24.158 25.8978 24 25.5 24C25.1022 24 24.7206 24.158 24.4393 24.4393C24.158 24.7206 24 25.1022 24 25.5C24 25.8978 24.158 26.2794 24.4393 26.5607C24.7206 26.842 25.1022 27 25.5 27Z" stroke="white" stroke-width="1.5"/>
<path d="M20 18.5H27M24 25.5H17" stroke="white" stroke-width="1.5" stroke-linecap="round"/>
</svg>
