<svg width="36" height="36" viewBox="0 0 36 36" fill="none" xmlns="http://www.w3.org/2000/svg">
<g clip-path="url(#clip0_76_3832)">
<path d="M14.2764 27.8473C14.1021 28.002 14.2286 28.3226 14.2286 28.5391V29.2873C14.2286 29.6951 14.0824 30.0495 13.8517 30.3701C13.2302 31.242 12.1249 31.5963 11.1883 32.0154C10.5555 32.2995 9.0058 32.966 9.0958 33.8407C9.2083 34.9066 11.0674 35.3566 11.8717 35.5395C13.7392 35.967 15.6686 35.8601 17.5614 35.711C18.363 35.6463 19.1871 35.5226 19.9661 35.3201C20.5286 35.1738 21.8955 34.8279 22.0839 34.1585C22.4271 32.9238 19.9577 32.2179 19.1955 31.8888C18.1492 31.4388 16.9849 30.8257 16.9849 29.5263C16.9821 29.1691 16.9821 28.8176 17.0355 28.4716C17.0692 28.241 16.9849 27.7685 17.2239 27.6504L14.2764 27.8473Z" fill="#926EF8" fill-opacity="0.2"/>
<path d="M15.5786 30.069C15.888 32.0462 17.8511 32.8871 18.6246 33.219C18.7511 33.2725 18.9171 33.3371 19.1083 33.4103C19.2967 33.4834 19.6877 33.6296 20.0477 33.7984C19.9211 33.835 19.7749 33.8743 19.6061 33.9193C18.9536 34.0881 18.228 34.2062 17.4517 34.2681C16.6221 34.3328 15.7333 34.3946 14.8783 34.3946C13.8574 34.3946 12.9827 34.3075 12.1952 34.1275C11.5933 33.9925 11.1967 33.8603 10.9352 33.7534C11.1236 33.6493 11.3767 33.5228 11.7171 33.3681L11.7817 33.34C11.9224 33.2753 12.0714 33.2134 12.2177 33.1515C13.1317 32.7634 14.2708 32.2768 15.0302 31.2165C15.2917 30.8509 15.4746 30.4684 15.5786 30.069ZM17.2267 27.6531L14.2764 27.8471C14.1021 28.0018 14.2286 28.3225 14.2286 28.539V29.2871C14.2286 29.695 14.0824 30.0493 13.8517 30.37C13.2302 31.2418 12.1249 31.5962 11.1883 32.0153C10.5555 32.2993 9.0058 32.9659 9.0958 33.8406C9.2083 34.9065 11.0674 35.3565 11.8717 35.5393C12.8589 35.7643 13.8658 35.8431 14.8755 35.8431C15.7727 35.8431 16.6727 35.7812 17.5642 35.7109C18.3658 35.6462 19.1899 35.5225 19.9689 35.32C20.5314 35.1737 21.8983 34.8278 22.0867 34.1584C22.4299 32.9237 19.9605 32.2178 19.1983 31.8887C18.1521 31.4387 16.9877 30.8256 16.9877 29.5262C16.9849 29.169 16.9849 28.8175 17.0383 28.4715C17.0721 28.2465 16.9877 27.7712 17.2267 27.6531Z" fill="#926EF8"/>
<path d="M24.9612 16.0402C24.3565 13.2699 25.2452 11.2505 25.2452 11.2505H6.76149C6.76149 11.2505 7.65024 13.2699 7.04556 16.0402C6.50274 18.8892 4.61837 21.4346 5.43962 25.3889C6.7615 31.748 15.7474 31.5708 15.7474 31.5708C15.7474 31.5708 15.8402 31.5708 16.0062 31.5652C16.1721 31.5708 16.2649 31.5708 16.2649 31.5708C16.2649 31.5708 25.2481 31.748 26.5699 25.3889C27.3884 21.4346 25.504 18.8892 24.9612 16.0402Z" fill="#926EF8" fill-opacity="0.2"/>
<path d="M23.4199 12.6792C23.2849 13.6467 23.2512 14.9067 23.5577 16.3242C23.749 17.3086 24.0724 18.2367 24.3846 19.1367C25.0371 21.0014 25.6502 22.7621 25.1665 25.0964C24.1484 29.9986 17.1312 30.1392 16.3352 30.1392H16.2396C16.2115 30.1392 16.1468 30.1392 16.054 30.1364H15.9527C15.8599 30.1392 15.7952 30.1392 15.7615 30.1392H15.6687C14.8727 30.1392 7.85556 29.9986 6.83462 25.0964C6.35087 22.7649 6.96399 21.0042 7.61649 19.1396C7.93149 18.2396 8.25493 17.3114 8.44337 16.3271C8.74993 14.9067 8.71618 13.6467 8.58399 12.6821H23.4199M25.2452 11.2505H6.76149C6.76149 11.2505 7.65024 13.2699 7.04556 16.0402C6.50274 18.8892 4.61837 21.4346 5.43962 25.3889C6.69118 31.4105 14.8137 31.5708 15.6743 31.5708H15.7699C15.8065 31.5708 15.8881 31.5708 16.0062 31.5652C16.1243 31.568 16.2059 31.5708 16.2424 31.5708H16.3381C17.1959 31.5708 25.3184 31.4105 26.5699 25.3889C27.3912 21.4346 25.5068 18.8892 24.964 16.0402C24.3565 13.2699 25.2452 11.2505 25.2452 11.2505Z" fill="#926EF8"/>
<path d="M25.2452 11.2507C25.2452 13.2279 21.1052 14.3276 16.0033 14.3276C10.8987 14.3276 6.76147 13.2279 6.76147 11.2507C6.76147 9.27633 10.8987 8.17383 16.0033 8.17383C21.1052 8.17383 25.2452 9.27633 25.2452 11.2507Z" fill="#926EF8" fill-opacity="0.2"/>
<path d="M16.0004 9.8107C20.7817 9.8107 23.0542 10.781 23.5464 11.2535C23.0542 11.7232 20.7817 12.6935 16.0004 12.6935C11.2192 12.6935 8.94948 11.7232 8.4573 11.2535C8.94948 10.781 11.222 9.8107 16.0004 9.8107ZM16.0004 8.17383C10.8957 8.17383 6.75854 9.27633 6.75854 11.2507C6.75854 13.2279 10.8957 14.3276 16.0004 14.3276C21.1051 14.3276 25.2423 13.2279 25.2423 11.2507C25.2451 9.27633 21.1051 8.17383 16.0004 8.17383Z" fill="#926EF8"/>
<path d="M22.0502 16.4143C21.828 16.2371 21.5242 16.3862 21.2289 16.4509C19.5161 16.8221 17.7471 16.9375 16.0005 16.9375C15.5674 16.9375 15.1371 16.929 14.7067 16.9121C13.8208 16.8784 12.9349 16.8053 12.0546 16.6787C11.6608 16.6224 11.2699 16.555 10.8789 16.4734C10.6989 16.4368 10.5133 16.3665 10.3305 16.3496C10.2096 16.3356 9.96769 16.3356 9.88331 16.4284C9.82706 16.4903 9.79612 16.6337 9.77644 16.7153C9.70612 17.0106 9.7005 17.3228 9.63581 17.6209C9.2505 19.6459 7.91175 21.4543 8.49393 24.264C9.43331 28.7837 15.8205 28.6571 15.8205 28.6571C15.8205 28.6571 15.888 28.6571 16.0033 28.6543C16.1214 28.6571 16.1889 28.6571 16.1889 28.6571C16.1889 28.6571 22.5733 28.7837 23.5127 24.264C24.0977 21.4543 22.7561 19.6459 22.3708 17.6209C22.3286 17.4015 22.2864 17.1878 22.2639 16.9656C22.2499 16.839 22.2499 16.7012 22.188 16.5859C22.1527 16.5209 22.106 16.4628 22.0502 16.4143Z" fill="#926EF8"/>
<mask id="mask0_76_3832" style="mask-type:luminance" maskUnits="userSpaceOnUse" x="0" y="0" width="17" height="20">
<path d="M6.99482 16.6927C7.17201 16.2061 7.25638 15.7083 7.3942 15.219C7.44763 15.0333 7.43638 14.8365 7.48138 14.648C7.51795 14.4933 7.54326 14.3865 7.51232 14.229C7.43357 13.8352 7.29576 13.7311 7.22263 13.3374C7.18045 13.1208 7.14388 12.398 7.19732 12.1786C7.31544 11.6808 7.84982 11.1183 8.71607 11.439C9.28138 11.6471 9.58513 11.8721 10.1448 12.0999C10.2742 12.1505 10.3783 12.1983 10.5133 12.1421C10.7017 12.0633 10.8564 11.889 11.0139 11.7624C11.177 11.6358 11.3401 11.5121 11.4836 11.363C11.9645 10.868 12.5101 10.4208 12.9264 9.86395C13.1711 9.5377 13.4692 9.22833 13.742 8.92458C14.1133 8.51395 14.4958 8.10333 14.8501 7.67864C15.3283 7.1077 15.6489 6.46926 15.8879 5.77458C16.0792 5.21489 16.3464 4.60739 16.3689 4.01114C16.3773 3.73551 16.3351 3.52458 16.2817 3.26301C16.2311 3.00708 16.2676 2.76239 16.1889 2.51208C16.1214 2.29551 15.9667 2.14926 15.8345 1.97208C15.6883 1.7752 15.5476 1.58114 15.3958 1.38708C15.1848 1.1227 15.0273 0.908951 14.7123 0.751451C13.7898 0.293014 12.6592 0.228326 11.6523 0.124264C9.52607 -0.0979238 7.26201 0.194576 5.25107 0.923014C4.3342 1.25489 3.39763 1.76958 2.68888 2.44739C2.30638 2.81301 2.07576 3.27708 1.79451 3.72145C1.44295 4.27833 1.10263 4.86895 0.85232 5.48208C0.455758 6.46083 0.36857 7.51551 0.15482 8.53645C0.0479454 9.03426 0.00294543 9.57708 0.000132929 10.089C-0.00549207 10.629 0.168883 11.1943 0.242008 11.7258C0.46982 13.3768 0.798883 15.0643 1.60607 16.538C2.21638 17.6602 2.84076 18.7655 4.11763 19.1874C4.65482 19.3646 5.48451 19.4968 5.84732 18.909C6.2467 18.2508 6.70232 17.4886 6.99482 16.6927Z" fill="white"/>
</mask>
<g mask="url(#mask0_76_3832)">
<path d="M4.37923 16.7573C4.32017 16.8079 4.25548 16.8501 4.18235 16.867C3.6986 16.9936 3.44829 16.4451 3.23173 16.1301C2.93285 15.6911 2.67758 15.2238 2.46954 14.7351C2.0561 13.7676 1.8311 12.7326 1.72704 11.6864C1.48517 9.28169 1.91267 6.9895 3.38923 5.12482C5.35517 2.64982 7.96798 1.91575 10.4149 1.93544C11.3711 1.94388 12.3245 2.11825 13.2414 2.38825C13.7533 2.53732 14.6252 2.8495 14.5914 3.32482C14.5408 3.99982 13.8602 4.70013 13.4749 5.20075C12.7324 6.17107 11.9617 7.12169 11.1686 8.05263C10.3361 9.02857 9.66954 10.1283 8.92142 11.1633C7.73735 12.7917 4.44954 16.7011 4.37923 16.7573Z" fill="#926EF8" fill-opacity="0.2"/>
<mask id="mask1_76_3832" style="mask-type:luminance" maskUnits="userSpaceOnUse" x="1" y="1" width="14" height="16">
<path d="M4.37923 16.7573C4.32017 16.8079 4.25548 16.8501 4.18235 16.867C3.6986 16.9936 3.44829 16.4451 3.23173 16.1301C2.93285 15.6911 2.67758 15.2238 2.46954 14.7351C2.0561 13.7676 1.8311 12.7326 1.72704 11.6864C1.48517 9.28169 1.91267 6.9895 3.38923 5.12482C5.35517 2.64982 7.96798 1.91575 10.4149 1.93544C11.3711 1.94388 12.3245 2.11825 13.2414 2.38825C13.7533 2.53732 14.6252 2.8495 14.5914 3.32482C14.5408 3.99982 13.8602 4.70013 13.4749 5.20075C12.7324 6.17107 11.9617 7.12169 11.1686 8.05263C10.3361 9.02857 9.66954 10.1283 8.92142 11.1633C7.73735 12.7917 4.44954 16.7011 4.37923 16.7573Z" fill="white"/>
</mask>
<g mask="url(#mask1_76_3832)">
<path d="M4.8321 6.66597C4.42429 7.18909 4.19366 7.86128 4.17679 8.52221C4.16272 9.05659 4.27241 9.66409 4.78991 9.9144C5.11335 10.0719 9.65272 11.0928 9.97335 10.8594C10.1562 10.7244 10.2096 10.5275 10.1674 10.3053C10.0971 9.9144 8.1846 6.19347 7.48147 5.53253C6.8121 4.8969 5.70679 5.54378 4.8321 6.66597ZM3.63679 13.5369C4.34835 15.5422 5.54366 16.31 5.54366 16.31C5.54366 16.31 5.89804 16.2257 6.14835 16.2003C6.37616 16.175 6.46054 16.0513 6.60679 15.905C6.80929 15.6997 7.04272 15.5282 7.2396 15.32C7.49272 15.0528 7.70929 14.7322 7.95397 14.4482C8.15085 14.2232 8.28304 13.9503 8.44335 13.7028C8.56429 13.5144 8.72179 13.3822 8.84554 13.1994C9.1071 12.8169 9.82991 12.2207 9.82429 11.7397C9.82147 11.616 9.97054 11.1378 9.97054 11.1378C9.97054 11.1378 4.93054 11.135 4.16272 11.3685C3.28241 11.6328 3.19241 12.291 3.63679 13.5369ZM12.3274 3.65659C12.8421 3.82253 13.863 4.20784 14.1921 4.77034C14.3158 4.98409 14.0262 5.4594 13.9221 5.6394C13.7758 5.88972 13.6718 6.15972 13.5199 6.4044C13.3287 6.7194 13.0727 7.00909 12.8646 7.32128C12.6987 7.56878 12.4708 7.77128 12.274 7.98784C12.1249 8.15378 12.0349 8.3394 11.8915 8.50815C11.5905 8.85972 11.194 9.68097 10.7355 9.83003C10.3024 9.97347 9.43054 7.18065 8.90741 4.46097C8.7921 3.86753 9.37429 3.63128 9.98179 3.49909C10.9099 3.29378 11.838 3.5019 12.3274 3.65659Z" fill="#7443FF"/>
</g>
</g>
<path d="M32.1386 6.59029C31.354 5.81122 30.4483 5.4456 29.5061 5.31904C29.6018 5.33029 29.7115 4.95341 29.7311 4.89435C29.7874 4.73404 29.8746 4.64966 29.9815 4.51466C30.0799 4.3881 30.1361 4.25591 30.2008 4.11528C30.3358 3.82841 30.3724 3.59778 30.3358 3.27716C30.2936 2.89466 30.1811 2.57685 29.9477 2.27028C29.7452 2.0031 29.5286 1.70216 29.2446 1.51935C28.9633 1.33935 28.7355 1.24372 28.4037 1.24372C27.948 1.24372 27.6471 0.864035 27.2196 0.74591C26.5643 0.56591 26.0074 0.824659 25.4674 1.16497C25.3408 1.24372 24.6518 1.62903 24.7165 1.78653C24.618 1.54185 24.5055 1.30278 24.3621 1.07778C23.5408 -0.224403 21.8168 -0.218778 20.5905 0.419659C20.2615 0.591222 20.0702 0.911847 19.7046 1.06091C19.398 1.18747 19.1618 1.4181 18.9283 1.64872C18.3715 2.19716 18.2533 3.06903 18.3433 3.80028C18.4333 4.53435 18.8186 5.00122 19.4008 5.38654C18.678 5.45403 17.989 5.67622 17.4265 6.1431C16.7711 6.68591 16.4055 7.4031 16.414 8.27497C16.4196 8.80372 16.698 9.3381 16.7346 9.9006C16.7627 10.3393 16.9877 10.7472 17.2268 11.0931C18.079 12.3222 19.7833 12.6906 21.1474 12.2462C21.1699 12.6653 21.2543 13.0647 21.4286 13.405C21.7127 13.9675 22.2949 14.4878 22.8546 14.7072C23.2315 14.8562 23.7827 14.7915 24.123 15.0222C24.4521 15.2472 24.7811 15.3793 25.1721 15.3878C26.6627 15.4243 28.2461 14.4793 28.6877 12.9381C28.7496 12.7159 28.7777 12.4797 28.7777 12.2378C29.6046 12.3278 30.4343 12.2181 30.8843 11.9622C31.3765 11.6781 31.5761 11.1662 32.0346 10.8625C32.4311 10.6009 32.7968 10.1706 32.7293 9.6306C32.5886 8.52247 33.1061 7.55216 32.1386 6.59029Z" fill="#926EF8"/>
<path d="M23.853 3.98018C23.7546 3.99143 23.6505 3.93518 23.5155 3.85362C23.2455 3.69049 23.0009 3.48518 22.7168 3.34174C22.4018 3.18424 22.0699 3.04081 21.7184 2.99581C21.5918 2.97893 21.4399 2.95362 21.3162 3.00143C20.8549 3.18143 21.1502 3.58081 21.3724 3.82268C21.6621 4.13768 21.9771 4.43018 22.2246 4.78456C22.4187 5.06018 23.1274 5.81112 22.3259 5.61706C21.9659 5.52987 21.5721 5.52706 21.2037 5.53831C20.8549 5.54956 20.5118 5.62268 20.2277 5.83081C20.1349 5.89831 19.9887 6.01362 20.0196 6.14862C20.0449 6.26674 20.1855 6.33424 20.284 6.37924C20.6496 6.54518 21.063 6.60706 21.4512 6.69987C21.6199 6.74205 21.8055 6.7758 21.9574 6.86581C22.278 7.05987 21.7915 7.16674 21.648 7.23987C21.5159 7.30737 21.3724 7.36081 21.2402 7.43393C21.0715 7.52674 20.9055 7.62237 20.7452 7.73206C20.658 7.79393 20.5709 7.8558 20.4921 7.92893C20.2896 8.11455 20.073 8.60393 20.5202 8.60393C20.7087 8.60393 20.8943 8.58424 21.0799 8.56174C21.2965 8.53362 22.1402 8.28049 22.2612 8.56737C22.3287 8.73049 22.1402 8.91612 22.0671 9.0483C21.9096 9.3408 21.7746 9.64737 21.6959 9.96799C21.6284 10.2492 21.5102 10.7949 21.9152 10.8764C22.264 10.9467 22.5818 10.5417 22.7927 10.3224C23.0824 10.0214 23.3524 9.68112 23.7265 9.48143C24.3227 9.16362 24.168 10.103 24.1371 10.4714C24.1062 10.8483 24.1315 11.2364 24.1315 11.6133C24.1315 11.7624 24.1118 11.9564 24.289 12.0099C25.0118 12.2236 25.144 10.8511 25.3015 10.4208C25.5265 9.79924 26.0524 10.4546 26.2577 10.7358C26.3843 10.9102 27.0284 12.1927 27.2787 11.5683C27.3687 11.3433 27.318 11.0367 27.318 10.7949C27.318 10.5417 27.2449 10.2886 27.1774 10.0524C27.1465 9.9483 27.1043 9.84705 27.079 9.74299C27.0537 9.63331 27.034 9.56862 27.1605 9.55456C27.5937 9.50393 28.024 9.7458 28.4093 9.90893C28.5359 9.96237 29.6355 10.3871 29.6918 10.1199C29.7762 9.71768 29.4752 9.33518 29.2221 9.05956C29.0646 8.88799 28.8959 8.7333 28.7215 8.57862C28.5977 8.46893 28.429 8.37893 28.5752 8.21018C28.6258 8.15393 28.6737 8.13424 28.7496 8.13143C28.9887 8.12299 29.239 8.16518 29.4809 8.16518C29.7115 8.16799 30.094 8.27206 30.2965 8.13143C30.6565 7.88393 30.1109 7.34112 30.0096 7.08799C29.914 6.84893 29.7087 6.64924 29.5118 6.4833C29.3073 6.30872 29.0755 6.16904 28.8255 6.06987C28.699 6.01924 28.5696 5.98268 28.4374 5.95737C28.4009 5.94893 28.024 5.92081 28.024 5.91799C27.9143 5.52987 29.4359 4.40487 29.6974 3.95487C29.3065 3.87331 28.7468 3.87331 28.353 3.95487C28.0212 4.02518 27.7315 4.21081 27.4137 4.30924C27.3124 4.34018 27.1071 4.41893 27.003 4.35706C26.8934 4.28956 26.958 4.11518 26.9918 4.01956C27.0424 3.88174 27.1746 3.73549 27.273 3.62299C27.4502 3.41487 27.8468 2.98456 27.318 2.94518C26.8455 2.91143 26.3674 3.28268 25.9934 3.53299C25.8471 3.63143 25.7177 3.76643 25.5743 3.87331C25.4984 3.92956 25.4393 3.99706 25.338 3.93518C25.2705 3.89299 25.234 3.79737 25.2424 3.72143C25.2649 3.53299 25.338 3.35018 25.4027 3.17299C25.4927 2.92831 25.6868 2.57674 25.6362 2.31237C25.5799 2.01424 25.2452 2.15768 25.0905 2.28706C24.9162 2.43049 24.7868 2.62456 24.6546 2.79893C24.5112 2.98456 24.3846 3.18143 24.2721 3.38674C24.1934 3.53299 24.1709 3.69331 24.0724 3.82831C23.988 3.92393 23.9234 3.96893 23.853 3.98018Z" fill="#926EF8" fill-opacity="0.2"/>
<path d="M35.3166 3.85863C34.4616 2.78426 33.0413 2.58457 31.7532 2.85457C30.991 3.01488 30.4004 3.55207 29.686 3.8277C28.8873 4.13426 27.9901 4.08926 27.2082 4.43238C25.4644 5.19176 24.7698 7.92551 26.8791 8.69895C27.481 8.92113 28.1504 9.04207 28.786 8.90145C29.6326 8.71582 30.1754 7.93113 31.0107 7.72582C31.5929 7.58238 32.206 7.66113 32.7938 7.54863C33.0357 7.50082 33.2776 7.44176 33.511 7.36582C34.1073 7.17457 34.7457 6.89613 35.1985 6.45176C35.8988 5.75988 35.9129 4.60676 35.3166 3.85863Z" fill="#926EF8"/>
<path d="M33.5251 6.1651C33.196 6.30854 32.8416 6.40979 32.507 6.45198C31.922 6.52792 31.3398 6.40698 30.7407 6.55042C29.911 6.74448 29.2754 7.45885 28.4598 7.68667C27.4585 7.96792 26.6963 7.56573 26.6907 6.51104C26.6879 6.14542 26.8763 5.94573 27.1885 5.74885C27.8354 5.33823 28.6482 5.31292 29.3682 5.09917C29.6579 5.01479 29.9532 4.89104 30.2373 4.76729C30.496 4.65479 30.7266 4.48604 30.9741 4.33979C31.5479 4.00229 32.462 3.83354 33.1173 3.89542C33.7979 3.9601 34.6726 4.08667 34.6698 4.93042C34.667 5.44792 34.4982 5.59698 34.0791 5.86979C33.9076 5.98229 33.722 6.08073 33.5251 6.1651Z" fill="#7443FF"/>
</g>
<defs>
<clipPath id="clip0_76_3832">
<rect width="36" height="36" fill="white"/>
</clipPath>
</defs>
</svg>
