<svg width="62" height="62" viewBox="0 0 62 62" fill="none" xmlns="http://www.w3.org/2000/svg">
<circle cx="30.6715" cy="30.6871" r="30" fill="#C4E9E1"/>
<path d="M60.2181 21.2845C60.3006 21.5037 60.3335 21.8338 60.4057 22.0976C60.7021 23.2064 60.7537 23.6276 60.9372 24.6465C61.2989 26.1425 61.6411 30.6891 61.1251 30.6871C61.1251 30.6871 61.1251 30.6871 61.1251 30.6871C61.1207 30.6871 61.1162 30.6866 61.1117 30.6858C61.0264 30.6695 60.9303 30.2885 60.8317 30.2343C60.733 30.1802 60.1103 30.2286 60.0598 29.7081C60.0051 28.9551 59.9938 27.1235 59.9188 26.721C59.8771 26.4465 59.7711 26.1182 59.7021 25.7693C59.4752 24.6521 59.3828 24.0541 58.974 23.1027C58.9469 22.6851 58.9109 22.268 58.8655 21.8501C58.6708 21.3453 58.5009 20.5429 58.3764 20.2365C58.2763 19.9861 58.1589 19.8628 58.0515 19.6047C57.9307 19.3164 57.8083 18.8426 57.5593 18.3272C57.1473 17.4853 56.9141 17.4145 56.6372 16.9304C56.3485 16.4292 55.98 15.5997 55.5317 15.0057C55.4665 14.9371 55.401 14.869 55.3352 14.8013C55.336 14.8797 55.3365 14.958 55.3366 15.0362C55.121 14.7349 55.1051 14.5552 54.9154 14.2716C54.6909 13.9384 54.5056 13.8189 54.3487 13.6004C54.2201 13.4216 54.0946 13.1421 53.9167 12.9167C53.657 12.5891 53.6381 12.7201 53.4855 12.5553C53.4331 12.4818 52.3258 11.2567 52.2548 11.1965C51.7753 10.6769 51.8244 10.5451 51.4357 10.132C50.3515 8.99028 49.0501 8.01841 47.8591 7.19685C47.3274 6.82871 46.7748 6.44253 46.2411 6.07998C47.2849 6.35024 45.4946 4.92349 45.9457 5.81245C45.3699 5.37369 44.8552 5.24161 44.2667 4.90232C43.8847 4.68458 43.644 4.47987 43.0733 4.21238C42.0566 3.73367 40.8465 3.49446 40.6668 3.04143C39.4074 2.65259 38.3319 2.23064 37.7934 2.43084C37.4654 2.36542 36.6577 1.98637 36.2882 1.8915C35.948 1.76562 33.2061 1.31111 32.7492 1.30964C32.2933 1.2704 31.5023 1.23395 31.1173 1.25912C30.9611 1.26824 30.8197 1.31026 30.6715 1.34983C30.3609 1.43317 30.0273 1.50248 29.441 1.25932C28.4468 1.33815 28.0976 1.35685 27.169 1.4148C27.0012 1.42651 26.9752 1.37112 26.8777 1.38343C26.6763 1.40911 26.3441 1.49798 25.9876 1.56039C25.4025 1.66309 25.0486 1.61025 25.1483 1.78157C24.7729 1.88491 24.3961 1.99646 24.0248 2.11484C23.8838 2.1103 23.7426 2.10677 23.6013 2.10426C23.4089 2.19238 23.217 2.28267 23.0262 2.375C23.1901 2.04293 21.8204 2.60331 22.3235 2.62024C21.587 2.78029 20.8545 2.96961 20.1272 3.18841C20.1102 2.85163 18.5709 3.7859 18.7837 3.88733C18.7048 3.92212 18.6261 3.95723 18.5475 3.99269C17.8274 4.23168 17.2326 4.59973 16.4013 4.99768C15.571 5.40349 15.6352 5.34215 15.3194 5.36432C15.1366 5.4849 14.9553 5.60741 14.7755 5.73181C14.0398 6.68633 13.8022 5.99025 12.4149 7.42388C11.765 7.61257 10.6565 8.72448 9.98341 9.50002C9.90415 9.5897 9.93589 9.62493 9.83368 9.74706C9.58048 10.0416 8.8589 10.7216 8.997 10.8021C8.73367 11.0234 8.47375 11.2497 8.21722 11.4811C8.05627 11.712 7.89873 11.9449 7.74498 12.1795C7.78309 12.2085 7.82119 12.2374 7.85928 12.2664C7.37761 12.5978 6.89595 13.3447 6.61535 13.6783C6.55898 13.7447 6.49356 13.7213 6.32481 13.9336C6.12636 14.1816 5.81823 14.6829 5.6015 14.992C5.58554 15.155 5.57103 15.3178 5.55806 15.4801C5.24772 16.072 4.9673 16.1829 4.7624 16.5223C4.71957 16.5803 4.13675 17.7389 4.11605 17.8072C3.90462 18.3398 4.09268 18.2495 3.43015 19.754C3.31528 20.0233 3.17701 20.2245 3.08233 20.4732C2.90587 20.9084 2.59728 22.2945 2.68894 22.4325C2.3755 22.9296 2.07547 24.418 1.95473 24.8497C1.91569 24.9789 1.81453 24.9892 1.71932 25.3945C1.63956 25.7238 1.58076 26.5934 1.51885 27.0148C1.44989 27.4627 1.35552 27.6192 1.32991 27.8197C1.30638 28.0103 1.35475 28.1921 1.33463 28.4531C1.27104 29.2715 1.14589 30.0026 1.14322 30.6572C1.14318 30.6672 1.14316 30.6771 1.14317 30.6871C1.14472 31.6196 1.37293 32.4253 1.52087 33.1847C1.52481 33.3779 1.50162 33.569 1.52237 33.7714C1.76661 36.2702 2.40255 39.0446 3.29577 41.4062C3.66226 42.5153 4.78267 45.2328 4.80908 44.336C5.03032 44.6743 6.41722 47.2753 6.7786 47.7164C7.1033 48.1749 7.43491 48.4821 7.70838 48.8266C8.5407 49.8596 9.1181 50.6081 10.3205 51.6926C10.6325 51.9712 11.0235 52.2059 11.206 52.3706C11.4255 52.5697 11.6077 52.8474 11.8998 53.0999C12.5889 53.71 13.9854 54.706 14.7216 55.1903C14.8549 55.2805 14.8599 55.377 15.0423 55.5212C15.7517 56.0861 16.6481 56.5633 16.6104 56.2586C17.549 56.9366 18.5725 57.2797 19.5557 57.677C21.6138 58.5869 25.6113 59.6102 27.5813 59.644C28.8131 59.6889 28.7833 59.5993 30.5918 59.7245C30.6183 59.726 30.6449 59.7275 30.6715 59.729C31.0492 59.7496 31.43 59.7701 31.8855 59.7755C33.0292 59.7894 34.1115 59.881 34.9405 59.5076C36.2123 59.3842 37.19 59.1198 38.1607 59.0858C38.2565 59.0079 38.3514 58.9296 38.4455 58.8508C38.596 58.808 38.7461 58.764 38.8956 58.7189C38.956 58.7519 39.0166 58.7847 39.0774 58.8173C40.1652 58.5125 41.4315 57.8254 42.2946 57.4454C43.7847 56.8842 47.3517 54.853 48.5504 53.9164C49.2064 53.4493 49.1682 53.3382 49.6604 53.2069C49.7888 53.079 49.9159 52.9501 50.0416 52.8201C50.0956 52.7105 50.1488 52.6008 50.2011 52.491C50.9675 51.8055 51.8822 50.9897 52.5359 50.2544C53.7508 48.9302 55.2173 46.674 56.1561 45.1463C56.3978 44.7659 56.7492 44.3147 56.9473 43.9181C57.2334 43.3392 57.158 43.132 57.4847 42.3881C58.0659 41.1181 59.0619 38.684 59.3235 37.3717C59.4084 36.9854 59.3878 36.791 59.4359 36.5232C59.632 35.4005 59.7701 34.4687 59.7797 33.3725C60.0298 32.2192 60.2066 32.3211 60.4268 31.9651C60.5931 31.6961 60.958 30.8308 61.0874 30.7023C61.1806 30.6138 61.2993 30.9443 61.402 30.8208C61.4672 32.2997 61.3279 32.9223 61.0627 34.0911C60.8262 36.2808 60.3518 38.4456 59.6481 40.5339C59.5307 40.7057 59.4119 40.8757 59.2916 41.0438C59.2915 41.0437 59.2914 41.0437 59.2913 41.0436C58.9419 41.8117 58.9364 42.1918 58.79 42.6248C57.6125 46.9281 51.8407 53.7186 47.6398 56.1224C46.8044 56.7357 43.8668 58.4109 43.1603 58.5756C42.9826 58.6291 42.9013 58.5708 42.7208 58.6449C41.1428 59.3818 39.4968 59.9837 37.8064 60.4402C35.485 60.9055 33.0821 61.2075 30.6715 61.2349C29.4152 61.2496 28.169 61.1914 26.9352 61.0482C17.155 59.9782 8.20765 53.8343 3.65856 45.2662C2.76107 43.6259 1.78308 41.4464 1.29867 39.6745C1.09635 38.9376 1.13986 38.5945 0.808426 37.6465C0.842352 37.6278 0.876289 37.6092 0.910243 37.5906C0.67309 36.7479 0.482219 36.2182 0.324634 35.2452C0.174887 34.4346 -0.014607 32.2433 0.000894964 31.517C-0.00074625 31.1378 0.0714674 31.2779 0.0671992 30.9244C0.066534 30.854 0.0647533 30.7744 0.0623562 30.6871C0.0403654 30.0223 0.00552934 28.9298 0.0689496 28.1906C0.12286 27.4385 0.366641 26.1815 0.456674 25.6081C0.756019 23.5413 1.24887 21.2871 2.1176 19.2204C2.35383 18.6499 2.76369 17.9608 2.84357 17.7866C2.99799 17.4434 2.96874 17.3045 3.07091 17.071C3.58053 15.8806 4.69919 14.1957 5.43312 13.1712C7.78062 9.79288 10.9793 6.70621 14.4805 4.5671C16.6525 3.14806 20.6475 1.45642 22.9992 0.98847C23.5004 0.876439 23.3902 1.00299 23.8091 0.904817C24.2742 0.79865 24.517 0.684551 24.734 0.636135C26.1015 0.299161 29.0399 -0.064603 30.6715 0.00976062C30.8373 0.013757 30.989 0.0200655 31.1238 0.028124C31.4029 0.044996 31.6021 0.126428 31.7678 0.13192C31.8519 0.134934 32.0427 0.0903007 32.3073 0.0989306C34.6448 0.191005 36.3408 0.491049 38.5536 1.08093C42.7921 2.20145 47.4533 4.53167 50.8717 7.64759C51.62 8.31993 52.001 8.91438 52.1022 9.01066C52.3225 9.22606 52.5353 9.2932 52.9843 9.73235C54.4912 11.186 56.0903 13.5197 57.1169 15.2144C57.638 16.0441 58.3715 17.1895 58.7908 18.0659C59.1452 18.7602 59.7453 20.4907 59.896 20.8021C59.9947 20.9896 60.1283 21.0481 60.2181 21.2845ZM42.4958 3.85758C42.688 3.74613 41.3549 3.34402 41.7987 3.62958C41.8983 3.69144 42.4468 3.88363 42.4958 3.85758ZM1.76555 37.1481C1.81108 37.1248 1.85662 37.1016 1.90218 37.0785C1.84272 36.9051 1.78457 36.7295 1.72842 36.5552C1.71939 36.6609 1.71132 36.7686 1.70364 36.8755C1.72386 36.9665 1.7445 37.0574 1.76555 37.1481Z" fill="#20B2AA"/>
<path d="M25.4628 38.1871C27.2128 38.1871 28.7378 39.2108 29.4565 40.7221C29.5991 41.0214 29.6169 41.3652 29.506 41.6776C29.3951 41.9901 29.1646 42.2458 28.8653 42.3883C28.5659 42.5309 28.2222 42.5487 27.9097 42.4378C27.5972 42.3269 27.3416 42.0964 27.199 41.7971C27.0445 41.4665 26.7993 41.1867 26.4919 40.9902C26.1845 40.7937 25.8276 40.6885 25.4628 40.6871H19.4215C19.09 40.6871 18.772 40.5554 18.5376 40.321C18.3032 40.0865 18.1715 39.7686 18.1715 39.4371C18.1715 39.1056 18.3032 38.7876 18.5376 38.5532C18.772 38.3188 19.09 38.1871 19.4215 38.1871H25.4628ZM41.9215 38.1871C42.253 38.1871 42.571 38.3188 42.8054 38.5532C43.0398 38.7876 43.1715 39.1056 43.1715 39.4371C43.1715 39.7686 43.0398 40.0865 42.8054 40.321C42.571 40.5554 42.253 40.6871 41.9215 40.6871H35.8803C35.1715 40.6871 34.4615 41.1333 34.144 41.7983C34.0015 42.0977 33.7458 42.3282 33.4333 42.439C33.1209 42.5499 32.7771 42.5321 32.4778 42.3896C32.1784 42.247 31.9479 41.9914 31.837 41.6789C31.7262 41.3664 31.744 41.0227 31.8865 40.7233C32.2488 39.9697 32.8149 39.3326 33.5208 38.8843C34.2267 38.436 35.0441 38.1945 35.8803 38.1871H41.9215Z" fill="url(#paint0_linear_36_543)"/>
<path fill-rule="evenodd" clip-rule="evenodd" d="M26.7828 19.4446C27.5307 19.4837 28.2625 19.6777 28.9316 20.0142C29.6008 20.3507 30.1928 20.8225 30.6703 21.3996C31.1778 20.7861 31.8144 20.2921 32.5348 19.9528C33.2552 19.6136 34.0415 19.4375 34.8378 19.4371H43.1715C43.503 19.4371 43.821 19.5688 44.0554 19.8032C44.2898 20.0376 44.4215 20.3556 44.4215 20.6871V35.6883C44.4215 36.0198 44.2898 36.3378 44.0554 36.5722C43.821 36.8066 43.503 36.9383 43.1715 36.9383L34.8378 36.9371C34.0153 36.9371 33.4815 37.1396 33.1228 37.3796C32.7732 37.6194 32.4929 37.947 32.3103 38.3296C32.0784 38.8044 31.9461 39.3217 31.9215 39.8496V39.8608L31.9153 39.9821C31.8843 40.2904 31.7399 40.5763 31.5101 40.7842C31.2803 40.9921 30.9814 41.1072 30.6715 41.1072C30.3616 41.1072 30.0627 40.9921 29.8329 40.7842C29.6031 40.5763 29.4587 40.2904 29.4278 39.9821L29.4215 39.8546V39.8483L29.4165 39.7633C29.3836 39.2636 29.2541 38.775 29.0353 38.3246C28.8576 37.9426 28.5815 37.6147 28.2353 37.3746C27.8853 37.1371 27.3628 36.9371 26.5565 36.9371H18.1715C17.84 36.9371 17.522 36.8054 17.2876 36.571C17.0532 36.3365 16.9215 36.0186 16.9215 35.6871V20.6871C16.9215 20.3556 17.0532 20.0376 17.2876 19.8032C17.522 19.5688 17.84 19.4371 18.1715 19.4371H26.5053L26.7828 19.4446ZM29.4215 21.9371V37.3546H31.9215V21.9371H29.4215Z" fill="url(#paint1_linear_36_543)"/>
<defs>
<linearGradient id="paint0_linear_36_543" x1="30.6715" y1="38.1871" x2="30.6715" y2="42.511" gradientUnits="userSpaceOnUse">
<stop stop-color="#008080"/>
<stop offset="1" stop-color="#20B2AA"/>
</linearGradient>
<linearGradient id="paint1_linear_36_543" x1="30.6715" y1="19.4371" x2="30.6715" y2="41.1072" gradientUnits="userSpaceOnUse">
<stop stop-color="#008080"/>
<stop offset="1" stop-color="#20B2AA"/>
</linearGradient>
</defs>
</svg>
