<svg width="17" height="17" viewBox="0 0 17 17" fill="none" xmlns="http://www.w3.org/2000/svg">
<path d="M16.6665 8.33333C16.6665 12.9358 12.9357 16.6667 8.33317 16.6667C3.73067 16.6667 -0.000164032 12.9358 -0.000164032 8.33333C-0.000164032 3.73083 3.73067 0 8.33317 0V1.66667C6.73695 1.66685 5.19377 2.23975 3.98413 3.28124C2.77449 4.32273 1.97868 5.76366 1.74136 7.34215C1.50404 8.92063 1.84095 10.5319 2.69086 11.883C3.54077 13.2341 4.84726 14.2355 6.37286 14.705C7.89846 15.1746 9.5419 15.0812 11.0045 14.4417C12.467 13.8023 13.6516 12.6594 14.3429 11.2206C15.0342 9.78187 15.1864 8.14283 14.7717 6.60141C14.357 5.06 13.403 3.71853 12.0832 2.82083V5H10.4165V0H15.4165V1.66667H13.3332C14.3686 2.44244 15.209 3.44888 15.7876 4.60611C16.3662 5.76334 16.6672 7.03951 16.6665 8.33333Z" fill="white"/>
</svg>
