<svg width="62" height="62" viewBox="0 0 62 62" fill="none" xmlns="http://www.w3.org/2000/svg">
<circle cx="30.6715" cy="30.6871" r="30" fill="#FFC8AF"/>
<path d="M60.2181 21.2845C60.3006 21.5037 60.3335 21.8338 60.4057 22.0976C60.7021 23.2064 60.7537 23.6276 60.9372 24.6465C61.2989 26.1425 61.6411 30.6891 61.1251 30.6871C61.1251 30.6871 61.1251 30.6871 61.1251 30.6871C61.1207 30.6871 61.1162 30.6866 61.1117 30.6858C61.0264 30.6695 60.9303 30.2885 60.8317 30.2343C60.733 30.1802 60.1103 30.2286 60.0598 29.7081C60.0051 28.9551 59.9938 27.1235 59.9188 26.721C59.8771 26.4465 59.7711 26.1182 59.7021 25.7693C59.4752 24.6521 59.3828 24.0541 58.974 23.1027C58.9469 22.6851 58.9109 22.268 58.8655 21.8501C58.6708 21.3453 58.5009 20.5429 58.3764 20.2365C58.2763 19.9861 58.1589 19.8628 58.0515 19.6047C57.9307 19.3164 57.8083 18.8426 57.5593 18.3272C57.1473 17.4853 56.9141 17.4145 56.6372 16.9304C56.3485 16.4292 55.98 15.5997 55.5317 15.0057C55.4665 14.9371 55.401 14.869 55.3352 14.8013C55.336 14.8797 55.3365 14.958 55.3366 15.0362C55.121 14.7349 55.1051 14.5552 54.9154 14.2716C54.6909 13.9384 54.5056 13.8189 54.3487 13.6004C54.2201 13.4216 54.0946 13.1421 53.9167 12.9167C53.657 12.5891 53.6381 12.7201 53.4855 12.5553C53.4331 12.4818 52.3258 11.2567 52.2548 11.1965C51.7753 10.6769 51.8244 10.5451 51.4357 10.132C50.3515 8.99028 49.0501 8.01841 47.8591 7.19685C47.3274 6.82871 46.7748 6.44253 46.2411 6.07998C47.2849 6.35024 45.4946 4.92349 45.9457 5.81245C45.3699 5.37369 44.8552 5.24161 44.2667 4.90232C43.8847 4.68458 43.644 4.47987 43.0733 4.21238C42.0566 3.73367 40.8465 3.49446 40.6668 3.04143C39.4074 2.65259 38.3319 2.23064 37.7934 2.43084C37.4654 2.36542 36.6577 1.98637 36.2882 1.8915C35.948 1.76562 33.2061 1.31111 32.7492 1.30964C32.2933 1.2704 31.5023 1.23395 31.1173 1.25912C30.9611 1.26824 30.8197 1.31026 30.6715 1.34983C30.3609 1.43317 30.0273 1.50248 29.441 1.25932C28.4468 1.33815 28.0976 1.35685 27.169 1.4148C27.0012 1.42651 26.9752 1.37112 26.8777 1.38343C26.6763 1.40911 26.3441 1.49798 25.9876 1.56039C25.4025 1.66309 25.0486 1.61025 25.1483 1.78157C24.7729 1.88491 24.3961 1.99646 24.0248 2.11484C23.8838 2.1103 23.7426 2.10677 23.6013 2.10426C23.4089 2.19238 23.217 2.28267 23.0262 2.375C23.1901 2.04293 21.8204 2.60331 22.3235 2.62024C21.587 2.78029 20.8545 2.96961 20.1272 3.18841C20.1102 2.85163 18.5709 3.7859 18.7837 3.88733C18.7048 3.92212 18.6261 3.95723 18.5475 3.99269C17.8274 4.23168 17.2326 4.59973 16.4013 4.99768C15.571 5.40349 15.6352 5.34215 15.3194 5.36432C15.1366 5.4849 14.9553 5.60741 14.7755 5.73181C14.0398 6.68633 13.8022 5.99025 12.4149 7.42388C11.765 7.61257 10.6565 8.72448 9.98341 9.50002C9.90415 9.5897 9.93589 9.62493 9.83368 9.74706C9.58048 10.0416 8.8589 10.7216 8.997 10.8021C8.73367 11.0234 8.47375 11.2497 8.21722 11.4811C8.05627 11.712 7.89873 11.9449 7.74498 12.1795C7.78309 12.2085 7.82119 12.2374 7.85928 12.2664C7.37761 12.5978 6.89595 13.3447 6.61535 13.6783C6.55898 13.7447 6.49356 13.7213 6.32481 13.9336C6.12636 14.1816 5.81823 14.6829 5.6015 14.992C5.58554 15.155 5.57103 15.3178 5.55806 15.4801C5.24772 16.072 4.9673 16.1829 4.7624 16.5223C4.71957 16.5803 4.13675 17.7389 4.11605 17.8072C3.90462 18.3398 4.09268 18.2495 3.43015 19.754C3.31528 20.0233 3.17701 20.2245 3.08233 20.4732C2.90587 20.9084 2.59728 22.2945 2.68894 22.4325C2.3755 22.9296 2.07547 24.418 1.95473 24.8497C1.91569 24.9789 1.81453 24.9892 1.71932 25.3945C1.63956 25.7238 1.58076 26.5934 1.51885 27.0148C1.44989 27.4627 1.35552 27.6192 1.32991 27.8197C1.30638 28.0103 1.35475 28.1921 1.33463 28.4531C1.27104 29.2715 1.14589 30.0026 1.14322 30.6572C1.14318 30.6672 1.14316 30.6771 1.14317 30.6871C1.14472 31.6196 1.37293 32.4253 1.52087 33.1847C1.52481 33.3779 1.50162 33.569 1.52237 33.7714C1.76661 36.2702 2.40255 39.0446 3.29577 41.4062C3.66226 42.5153 4.78267 45.2328 4.80908 44.336C5.03032 44.6743 6.41722 47.2753 6.7786 47.7164C7.1033 48.1749 7.43491 48.4821 7.70838 48.8266C8.5407 49.8596 9.1181 50.6081 10.3205 51.6926C10.6325 51.9712 11.0235 52.2059 11.206 52.3706C11.4255 52.5697 11.6077 52.8474 11.8998 53.0999C12.5889 53.71 13.9854 54.706 14.7216 55.1903C14.8549 55.2805 14.8599 55.377 15.0423 55.5212C15.7517 56.0861 16.6481 56.5633 16.6104 56.2586C17.549 56.9366 18.5725 57.2797 19.5557 57.677C21.6138 58.5869 25.6113 59.6102 27.5813 59.644C28.8131 59.6889 28.7833 59.5993 30.5918 59.7245C30.6183 59.726 30.6449 59.7275 30.6715 59.729C31.0492 59.7496 31.43 59.7701 31.8855 59.7755C33.0292 59.7894 34.1115 59.881 34.9405 59.5076C36.2123 59.3842 37.19 59.1198 38.1607 59.0858C38.2565 59.0079 38.3514 58.9296 38.4455 58.8508C38.596 58.808 38.7461 58.764 38.8956 58.7189C38.956 58.7519 39.0166 58.7847 39.0774 58.8173C40.1652 58.5125 41.4315 57.8254 42.2946 57.4454C43.7847 56.8842 47.3517 54.853 48.5504 53.9164C49.2064 53.4493 49.1682 53.3382 49.6604 53.2069C49.7888 53.079 49.9159 52.9501 50.0416 52.8201C50.0956 52.7105 50.1488 52.6008 50.2011 52.491C50.9675 51.8055 51.8822 50.9897 52.5359 50.2544C53.7508 48.9302 55.2173 46.674 56.1561 45.1463C56.3978 44.7659 56.7492 44.3147 56.9473 43.9181C57.2334 43.3392 57.158 43.132 57.4847 42.3881C58.0659 41.1181 59.0619 38.684 59.3235 37.3717C59.4084 36.9854 59.3878 36.791 59.4359 36.5232C59.632 35.4005 59.7701 34.4687 59.7797 33.3725C60.0298 32.2192 60.2066 32.3211 60.4268 31.9651C60.5931 31.6961 60.958 30.8308 61.0874 30.7023C61.1806 30.6138 61.2993 30.9443 61.402 30.8208C61.4672 32.2997 61.3279 32.9223 61.0627 34.0911C60.8262 36.2808 60.3518 38.4456 59.6481 40.5339C59.5307 40.7057 59.4119 40.8757 59.2916 41.0438C59.2915 41.0437 59.2914 41.0437 59.2913 41.0436C58.9419 41.8117 58.9364 42.1918 58.79 42.6248C57.6125 46.9281 51.8407 53.7186 47.6398 56.1224C46.8044 56.7357 43.8668 58.4109 43.1603 58.5756C42.9826 58.6291 42.9013 58.5708 42.7208 58.6449C41.1428 59.3818 39.4968 59.9837 37.8064 60.4402C35.485 60.9055 33.0821 61.2075 30.6715 61.2349C29.4152 61.2496 28.169 61.1914 26.9352 61.0482C17.155 59.9782 8.20765 53.8343 3.65856 45.2662C2.76107 43.6259 1.78308 41.4464 1.29867 39.6745C1.09635 38.9376 1.13986 38.5945 0.808426 37.6465C0.842352 37.6278 0.876289 37.6092 0.910243 37.5906C0.67309 36.7479 0.482219 36.2182 0.324634 35.2452C0.174887 34.4346 -0.014607 32.2433 0.000894964 31.517C-0.00074625 31.1378 0.0714674 31.2779 0.0671992 30.9244C0.066534 30.854 0.0647533 30.7744 0.0623562 30.6871C0.0403654 30.0223 0.00552934 28.9298 0.0689496 28.1906C0.12286 27.4385 0.366641 26.1815 0.456674 25.6081C0.756019 23.5413 1.24887 21.2871 2.1176 19.2204C2.35383 18.6499 2.76369 17.9608 2.84357 17.7866C2.99799 17.4434 2.96874 17.3045 3.07091 17.071C3.58053 15.8806 4.69919 14.1957 5.43312 13.1712C7.78062 9.79288 10.9793 6.70621 14.4805 4.5671C16.6525 3.14806 20.6475 1.45642 22.9992 0.98847C23.5004 0.876439 23.3902 1.00299 23.8091 0.904817C24.2742 0.79865 24.517 0.684551 24.734 0.636135C26.1015 0.299161 29.0399 -0.064603 30.6715 0.00976062C30.8373 0.013757 30.989 0.0200655 31.1238 0.028124C31.4029 0.044996 31.6021 0.126428 31.7678 0.13192C31.8519 0.134934 32.0427 0.0903007 32.3073 0.0989306C34.6448 0.191005 36.3408 0.491049 38.5536 1.08093C42.7921 2.20145 47.4533 4.53167 50.8717 7.64759C51.62 8.31993 52.001 8.91438 52.1022 9.01066C52.3225 9.22606 52.5353 9.2932 52.9843 9.73235C54.4912 11.186 56.0903 13.5197 57.1169 15.2144C57.638 16.0441 58.3715 17.1895 58.7908 18.0659C59.1452 18.7602 59.7453 20.4907 59.896 20.8021C59.9947 20.9896 60.1283 21.0481 60.2181 21.2845ZM42.4958 3.85758C42.688 3.74613 41.3549 3.34402 41.7987 3.62958C41.8983 3.69144 42.4468 3.88363 42.4958 3.85758ZM1.76555 37.1481C1.81108 37.1248 1.85662 37.1016 1.90218 37.0785C1.84272 36.9051 1.78457 36.7295 1.72842 36.5552C1.71939 36.6609 1.71132 36.7686 1.70364 36.8755C1.72386 36.9665 1.7445 37.0574 1.76555 37.1481Z" fill="#FF692D"/>
<g clip-path="url(#clip0_36_553)">
<path fill-rule="evenodd" clip-rule="evenodd" d="M23.5057 15.7942C23.5625 15.7859 23.6205 15.7899 23.6756 15.806C23.7307 15.8222 23.7816 15.85 23.825 15.8877C23.8683 15.9253 23.903 15.9719 23.9267 16.0242C23.9504 16.0765 23.9625 16.1332 23.9622 16.1907V39.2049C23.9626 39.4134 23.8983 39.6169 23.7782 39.7874C23.6581 39.9578 23.488 40.0867 23.2915 40.1564C22.9115 40.2921 22.5186 40.4299 22.1129 40.5699L21.6007 40.7478C20.9386 40.9835 20.2079 41.2428 19.5093 41.3757C18.7915 41.5128 18.2257 41.1742 17.8915 40.8785C17.2486 40.3106 16.9207 39.5864 16.7236 38.9285C16.5828 38.4214 16.4733 37.9062 16.3957 37.3857L16.3422 37.0728C15.4493 32.0558 15.4493 26.9205 16.3422 21.9035L16.4493 21.3078C16.5779 20.5792 16.7429 19.6685 17.1757 18.8285C17.3051 18.5707 17.4602 18.3266 17.6386 18.0999C17.854 17.8185 18.1302 17.5892 18.4465 17.4292C19.3036 17.0199 20.255 16.5785 21.1336 16.3364C21.9134 16.1109 22.7054 15.9299 23.5057 15.7942ZM27.4443 39.6656C27.2144 39.6063 27.0107 39.4722 26.8652 39.2845C26.7198 39.0967 26.6408 38.866 26.6407 38.6285V17.2728C26.6407 17.1091 26.6782 16.9475 26.7503 16.8005C26.8224 16.6535 26.9273 16.525 27.0568 16.4249C27.1863 16.3247 27.3371 16.2556 27.4975 16.2228C27.6579 16.19 27.8237 16.1944 27.9822 16.2357L32.8036 17.4828C33.0331 17.5426 33.2364 17.6768 33.3814 17.8645C33.5264 18.0522 33.6051 18.2827 33.605 18.5199V29.3542C32.4713 30.2112 31.5518 31.3194 30.9186 32.5918C30.2854 33.8641 29.9558 35.2659 29.9557 36.6871C29.9557 38.0757 30.2643 39.3614 30.7293 40.5142L27.4443 39.6656ZM36.2857 17.5514V27.9485C37.212 27.6456 38.1805 27.4915 39.155 27.4921C41.1629 27.4921 43.0229 28.1349 44.5336 29.2278C44.6664 26.0596 44.4399 22.8865 43.8586 19.7692C43.7729 19.2493 43.6599 18.7343 43.52 18.2264C43.3276 17.5263 42.9655 16.8845 42.4657 16.3578C42.1486 16.0407 41.5915 15.6249 40.8393 15.6935C39.6929 15.8007 38.495 16.1135 37.6957 16.3342C37.45 16.4014 37.2 16.4828 36.9457 16.5785C36.7495 16.6538 36.5811 16.7874 36.4631 16.9614C36.3451 17.1353 36.2832 17.3412 36.2857 17.5514ZM39.155 30.1707C38.2988 30.1698 37.4509 30.3378 36.6596 30.6649C35.8684 30.992 35.1494 31.4719 34.5438 32.0771C33.9382 32.6823 33.4578 33.401 33.1302 34.192C32.8025 34.983 32.634 35.8309 32.6343 36.6871C32.6343 39.2049 34.0722 41.4356 35.4307 42.9571C36.125 43.7349 36.8386 44.3714 37.4236 44.8214C37.7207 45.0485 37.9872 45.2314 38.2229 45.3699C38.34 45.4399 38.4593 45.5014 38.5807 45.5542C38.66 45.5885 38.885 45.6828 39.1529 45.6828C39.4207 45.6828 39.6457 45.5885 39.725 45.5542C39.8465 45.5014 39.9657 45.4399 40.0829 45.3699C40.3143 45.2328 40.5886 45.0464 40.88 44.8214C41.465 44.3714 42.1807 43.7349 42.8729 42.9571C44.2357 41.4378 45.6715 39.2071 45.6715 36.6871C45.672 35.8309 45.5038 34.983 45.1764 34.1919C44.849 33.4007 44.3689 32.6819 43.7635 32.0765C43.158 31.4711 42.4392 30.9909 41.6481 30.6636C40.857 30.3362 40.0091 30.1679 39.1529 30.1685M39.1529 35.1314C39.8922 35.1314 40.4922 35.7314 40.4922 36.4707V36.7942C40.4922 37.1494 40.3511 37.4901 40.0999 37.7412C39.8487 37.9924 39.5081 38.1335 39.1529 38.1335C38.7977 38.1335 38.457 37.9924 38.2059 37.7412C37.9547 37.4901 37.8136 37.1494 37.8136 36.7942V36.4728C37.8136 35.7335 38.4136 35.1314 39.1529 35.1314Z" fill="#F77D4E"/>
</g>
<defs>
<clipPath id="clip0_36_553">
<rect width="30" height="30" fill="white" transform="translate(15.6715 15.6871)"/>
</clipPath>
</defs>
</svg>
