<svg width="36" height="36" viewBox="0 0 36 36" fill="none" xmlns="http://www.w3.org/2000/svg">
<g clip-path="url(#clip0_76_3205)">
<path d="M14.2764 27.8471C14.1021 28.0018 14.2286 28.3225 14.2286 28.539V29.2871C14.2286 29.695 14.0824 30.0493 13.8517 30.37C13.2302 31.2418 12.1249 31.5962 11.1883 32.0153C10.5555 32.2993 9.0058 32.9659 9.0958 33.8406C9.2083 34.9065 11.0674 35.3565 11.8717 35.5393C13.7392 35.9668 15.6686 35.86 17.5614 35.7109C18.363 35.6462 19.1871 35.5225 19.9661 35.32C20.5286 35.1737 21.8955 34.8278 22.0839 34.1584C22.4271 32.9237 19.9577 32.2178 19.1955 31.8887C18.1492 31.4387 16.9849 30.8256 16.9849 29.5262C16.9821 29.169 16.9821 28.8175 17.0355 28.4715C17.0692 28.2409 16.9849 27.7684 17.2239 27.6503L14.2764 27.8471Z" fill="#FFC8AF"/>
<path d="M15.5786 30.069C15.888 32.0462 17.8511 32.8871 18.6246 33.219C18.7511 33.2725 18.9171 33.3371 19.1083 33.4103C19.2967 33.4834 19.6877 33.6296 20.0477 33.7984C19.9211 33.835 19.7749 33.8743 19.6061 33.9193C18.9536 34.0881 18.228 34.2062 17.4517 34.2681C16.6221 34.3328 15.7333 34.3946 14.8783 34.3946C13.8574 34.3946 12.9827 34.3075 12.1952 34.1275C11.5933 33.9925 11.1967 33.8603 10.9352 33.7534C11.1236 33.6493 11.3767 33.5228 11.7171 33.3681L11.7817 33.34C11.9224 33.2753 12.0714 33.2134 12.2177 33.1515C13.1317 32.7634 14.2708 32.2768 15.0302 31.2165C15.2917 30.8509 15.4746 30.4684 15.5786 30.069ZM17.2267 27.6531L14.2764 27.8471C14.1021 28.0018 14.2286 28.3225 14.2286 28.539V29.2871C14.2286 29.695 14.0824 30.0493 13.8517 30.37C13.2302 31.2418 12.1249 31.5962 11.1883 32.0153C10.5555 32.2993 9.0058 32.9659 9.0958 33.8406C9.2083 34.9065 11.0674 35.3565 11.8717 35.5393C12.8589 35.7643 13.8658 35.8431 14.8755 35.8431C15.7727 35.8431 16.6727 35.7812 17.5642 35.7109C18.3658 35.6462 19.1899 35.5225 19.9689 35.32C20.5314 35.1737 21.8983 34.8278 22.0867 34.1584C22.4299 32.9237 19.9605 32.2178 19.1983 31.8887C18.1521 31.4387 16.9877 30.8256 16.9877 29.5262C16.9849 29.169 16.9849 28.8175 17.0383 28.4715C17.0721 28.2465 16.9877 27.7712 17.2267 27.6531Z" fill="#FF6F61"/>
<path d="M24.9612 16.0403C24.3565 13.27 25.2452 11.2506 25.2452 11.2506H6.76149C6.76149 11.2506 7.65024 13.27 7.04556 16.0403C6.50274 18.8893 4.61837 21.4346 5.43962 25.389C6.7615 31.7481 15.7474 31.5709 15.7474 31.5709C15.7474 31.5709 15.8402 31.5709 16.0062 31.5653C16.1721 31.5709 16.2649 31.5709 16.2649 31.5709C16.2649 31.5709 25.2481 31.7481 26.5699 25.389C27.3884 21.4346 25.504 18.8893 24.9612 16.0403Z" fill="#FFC8AF"/>
<path d="M23.4199 12.6793C23.2849 13.6468 23.2512 14.9068 23.5577 16.3243C23.749 17.3087 24.0724 18.2368 24.3846 19.1368C25.0371 21.0015 25.6502 22.7621 25.1665 25.0965C24.1484 29.9987 17.1312 30.1393 16.3352 30.1393H16.2396C16.2115 30.1393 16.1468 30.1393 16.054 30.1365H15.9527C15.8599 30.1393 15.7952 30.1393 15.7615 30.1393H15.6687C14.8727 30.1393 7.85556 29.9987 6.83462 25.0965C6.35087 22.765 6.96399 21.0043 7.61649 19.1396C7.93149 18.2396 8.25493 17.3115 8.44337 16.3271C8.74993 14.9068 8.71618 13.6468 8.58399 12.6821H23.4199M25.2452 11.2506H6.76149C6.76149 11.2506 7.65024 13.27 7.04556 16.0403C6.50274 18.8893 4.61837 21.4346 5.43962 25.389C6.69118 31.4106 14.8137 31.5709 15.6743 31.5709H15.7699C15.8065 31.5709 15.8881 31.5709 16.0062 31.5653C16.1243 31.5681 16.2059 31.5709 16.2424 31.5709H16.3381C17.1959 31.5709 25.3184 31.4106 26.5699 25.389C27.3912 21.4346 25.5068 18.8893 24.964 16.0403C24.3565 13.27 25.2452 11.2506 25.2452 11.2506Z" fill="#FF6F61"/>
<path d="M25.2452 11.2506C25.2452 13.2278 21.1052 14.3275 16.0033 14.3275C10.8987 14.3275 6.76147 13.2278 6.76147 11.2506C6.76147 9.27621 10.8987 8.17371 16.0033 8.17371C21.1052 8.17371 25.2452 9.27621 25.2452 11.2506Z" fill="#FFC8AF"/>
<path d="M16.0004 9.81058C20.7817 9.81058 23.0542 10.7809 23.5464 11.2534C23.0542 11.7231 20.7817 12.6934 16.0004 12.6934C11.2192 12.6934 8.94948 11.7231 8.4573 11.2534C8.94948 10.7809 11.222 9.81058 16.0004 9.81058ZM16.0004 8.17371C10.8957 8.17371 6.75854 9.27621 6.75854 11.2506C6.75854 13.2278 10.8957 14.3275 16.0004 14.3275C21.1051 14.3275 25.2423 13.2278 25.2423 11.2506C25.2451 9.27621 21.1051 8.17371 16.0004 8.17371Z" fill="#FF6F61"/>
<path d="M22.0502 16.4144C21.828 16.2372 21.5242 16.3862 21.2289 16.4509C19.5161 16.8222 17.7471 16.9375 16.0005 16.9375C15.5674 16.9375 15.1371 16.929 14.7067 16.9122C13.8208 16.8784 12.9349 16.8053 12.0546 16.6787C11.6608 16.6225 11.2699 16.555 10.8789 16.4734C10.6989 16.4369 10.5133 16.3665 10.3305 16.3497C10.2096 16.3356 9.96769 16.3356 9.88331 16.4284C9.82706 16.4903 9.79612 16.6337 9.77644 16.7153C9.70612 17.0106 9.7005 17.3228 9.63581 17.6209C9.2505 19.6459 7.91175 21.4544 8.49393 24.264C9.43331 28.7837 15.8205 28.6572 15.8205 28.6572C15.8205 28.6572 15.888 28.6572 16.0033 28.6544C16.1214 28.6572 16.1889 28.6572 16.1889 28.6572C16.1889 28.6572 22.5733 28.7837 23.5127 24.264C24.0977 21.4544 22.7561 19.6459 22.3708 17.6209C22.3286 17.4015 22.2864 17.1878 22.2639 16.9656C22.2499 16.839 22.2499 16.7012 22.188 16.5859C22.1527 16.521 22.106 16.4628 22.0502 16.4144Z" fill="#FF6F61"/>
<mask id="mask0_76_3205" style="mask-type:luminance" maskUnits="userSpaceOnUse" x="0" y="0" width="17" height="20">
<path d="M6.99482 16.6928C7.17201 16.2062 7.25638 15.7084 7.3942 15.219C7.44763 15.0334 7.43638 14.8365 7.48138 14.6481C7.51795 14.4934 7.54326 14.3865 7.51232 14.229C7.43357 13.8353 7.29576 13.7312 7.22263 13.3375C7.18045 13.1209 7.14388 12.3981 7.19732 12.1787C7.31544 11.6809 7.84982 11.1184 8.71607 11.439C9.28138 11.6471 9.58513 11.8721 10.1448 12.1C10.2742 12.1506 10.3783 12.1984 10.5133 12.1421C10.7017 12.0634 10.8564 11.889 11.0139 11.7625C11.177 11.6359 11.3401 11.5121 11.4836 11.3631C11.9645 10.8681 12.5101 10.4209 12.9264 9.86401C13.1711 9.53776 13.4692 9.22839 13.742 8.92464C14.1133 8.51401 14.4958 8.10339 14.8501 7.6787C15.3283 7.10776 15.6489 6.46932 15.8879 5.77464C16.0792 5.21495 16.3464 4.60745 16.3689 4.0112C16.3773 3.73557 16.3351 3.52464 16.2817 3.26307C16.2311 3.00714 16.2676 2.76245 16.1889 2.51214C16.1214 2.29557 15.9667 2.14932 15.8345 1.97214C15.6883 1.77526 15.5476 1.5812 15.3958 1.38714C15.1848 1.12276 15.0273 0.909012 14.7123 0.751512C13.7898 0.293075 12.6592 0.228387 11.6523 0.124325C9.52607 -0.0978628 7.26201 0.194637 5.25107 0.923075C4.3342 1.25495 3.39763 1.76964 2.68888 2.44745C2.30638 2.81307 2.07576 3.27714 1.79451 3.72151C1.44295 4.27839 1.10263 4.86901 0.85232 5.48214C0.455758 6.46089 0.36857 7.51557 0.15482 8.53651C0.0479454 9.03432 0.00294543 9.57714 0.000132929 10.089C-0.00549207 10.629 0.168883 11.1943 0.242008 11.7259C0.46982 13.3768 0.798883 15.0643 1.60607 16.5381C2.21638 17.6603 2.84076 18.7656 4.11763 19.1875C4.65482 19.3646 5.48451 19.4968 5.84732 18.909C6.2467 18.2509 6.70232 17.4887 6.99482 16.6928Z" fill="white"/>
</mask>
<g mask="url(#mask0_76_3205)">
<path d="M4.37923 16.7574C4.32017 16.8081 4.25548 16.8503 4.18235 16.8671C3.6986 16.9937 3.44829 16.4453 3.23173 16.1303C2.93285 15.6912 2.67758 15.224 2.46954 14.7353C2.0561 13.7678 1.8311 12.7328 1.72704 11.6865C1.48517 9.28182 1.91267 6.98963 3.38923 5.12494C5.35517 2.64994 7.96798 1.91588 10.4149 1.93556C11.3711 1.944 12.3245 2.11838 13.2414 2.38838C13.7533 2.53744 14.6252 2.84963 14.5914 3.32494C14.5408 3.99994 13.8602 4.70025 13.4749 5.20088C12.7324 6.17119 11.9617 7.12181 11.1686 8.05275C10.3361 9.02869 9.66954 10.1284 8.92142 11.1634C7.73735 12.7918 4.44954 16.7012 4.37923 16.7574Z" fill="#FF5D4D"/>
<mask id="mask1_76_3205" style="mask-type:luminance" maskUnits="userSpaceOnUse" x="1" y="1" width="14" height="16">
<path d="M4.37923 16.7574C4.32017 16.8081 4.25548 16.8503 4.18235 16.8671C3.6986 16.9937 3.44829 16.4453 3.23173 16.1303C2.93285 15.6912 2.67758 15.224 2.46954 14.7353C2.0561 13.7678 1.8311 12.7328 1.72704 11.6865C1.48517 9.28182 1.91267 6.98963 3.38923 5.12494C5.35517 2.64994 7.96798 1.91588 10.4149 1.93556C11.3711 1.944 12.3245 2.11838 13.2414 2.38838C13.7533 2.53744 14.6252 2.84963 14.5914 3.32494C14.5408 3.99994 13.8602 4.70025 13.4749 5.20088C12.7324 6.17119 11.9617 7.12181 11.1686 8.05275C10.3361 9.02869 9.66954 10.1284 8.92142 11.1634C7.73735 12.7918 4.44954 16.7012 4.37923 16.7574Z" fill="white"/>
</mask>
<g mask="url(#mask1_76_3205)">
<path d="M4.8321 6.66618C4.42429 7.1893 4.19366 7.86149 4.17679 8.52243C4.16272 9.0568 4.27241 9.6643 4.78991 9.91462C5.11335 10.0721 9.65272 11.0931 9.97335 10.8596C10.1562 10.7246 10.2096 10.5277 10.1674 10.3056C10.0971 9.91462 8.1846 6.19368 7.48147 5.53274C6.8121 4.89712 5.70679 5.54399 4.8321 6.66618ZM3.63679 13.5371C4.34835 15.5424 5.54366 16.3102 5.54366 16.3102C5.54366 16.3102 5.89804 16.2259 6.14835 16.2006C6.37616 16.1752 6.46054 16.0515 6.60679 15.9052C6.80929 15.6999 7.04272 15.5284 7.2396 15.3202C7.49272 15.0531 7.70929 14.7324 7.95397 14.4484C8.15085 14.2234 8.28304 13.9506 8.44335 13.7031C8.56429 13.5146 8.72179 13.3824 8.84554 13.1996C9.1071 12.8171 9.82991 12.2209 9.82429 11.7399C9.82147 11.6162 9.97054 11.1381 9.97054 11.1381C9.97054 11.1381 4.93054 11.1352 4.16272 11.3687C3.28241 11.6331 3.19241 12.2912 3.63679 13.5371ZM12.3274 3.6568C12.8421 3.82274 13.863 4.20805 14.1921 4.77055C14.3158 4.9843 14.0262 5.45962 13.9221 5.63962C13.7758 5.88993 13.6718 6.15993 13.5199 6.40462C13.3287 6.71962 13.0727 7.0093 12.8646 7.32149C12.6987 7.56899 12.4708 7.77149 12.274 7.98805C12.1249 8.15399 12.0349 8.33962 11.8915 8.50837C11.5905 8.85993 11.194 9.68118 10.7355 9.83024C10.3024 9.97368 9.43054 7.18087 8.90741 4.46118C8.7921 3.86774 9.37429 3.63149 9.98179 3.4993C10.9099 3.29399 11.838 3.50212 12.3274 3.6568Z" fill="#FFA07A"/>
</g>
</g>
<path d="M32.1386 6.59029C31.354 5.81122 30.4483 5.4456 29.5061 5.31904C29.6018 5.33029 29.7115 4.95341 29.7311 4.89435C29.7874 4.73404 29.8746 4.64966 29.9815 4.51466C30.0799 4.3881 30.1361 4.25591 30.2008 4.11528C30.3358 3.82841 30.3724 3.59778 30.3358 3.27716C30.2936 2.89466 30.1811 2.57685 29.9477 2.27028C29.7452 2.0031 29.5286 1.70216 29.2446 1.51935C28.9633 1.33935 28.7355 1.24372 28.4037 1.24372C27.948 1.24372 27.6471 0.864035 27.2196 0.74591C26.5643 0.56591 26.0074 0.824659 25.4674 1.16497C25.3408 1.24372 24.6518 1.62903 24.7165 1.78653C24.618 1.54185 24.5055 1.30278 24.3621 1.07778C23.5408 -0.224403 21.8168 -0.218778 20.5905 0.419659C20.2615 0.591222 20.0702 0.911847 19.7046 1.06091C19.398 1.18747 19.1618 1.4181 18.9283 1.64872C18.3715 2.19716 18.2533 3.06903 18.3433 3.80028C18.4333 4.53435 18.8186 5.00122 19.4008 5.38654C18.678 5.45403 17.989 5.67622 17.4265 6.1431C16.7711 6.68591 16.4055 7.4031 16.414 8.27497C16.4196 8.80372 16.698 9.3381 16.7346 9.9006C16.7627 10.3393 16.9877 10.7472 17.2268 11.0931C18.079 12.3222 19.7833 12.6906 21.1474 12.2462C21.1699 12.6653 21.2543 13.0647 21.4286 13.405C21.7127 13.9675 22.2949 14.4878 22.8546 14.7072C23.2315 14.8562 23.7827 14.7915 24.123 15.0222C24.4521 15.2472 24.7811 15.3793 25.1721 15.3878C26.6627 15.4243 28.2461 14.4793 28.6877 12.9381C28.7496 12.7159 28.7777 12.4797 28.7777 12.2378C29.6046 12.3278 30.4343 12.2181 30.8843 11.9622C31.3765 11.6781 31.5761 11.1662 32.0346 10.8625C32.4311 10.6009 32.7968 10.1706 32.7293 9.6306C32.5886 8.52247 33.1061 7.55216 32.1386 6.59029Z" fill="#FF6F61"/>
<path d="M23.853 3.98027C23.7546 3.99152 23.6505 3.93527 23.5155 3.85371C23.2455 3.69058 23.0009 3.48527 22.7168 3.34183C22.4018 3.18433 22.0699 3.0409 21.7184 2.9959C21.5918 2.97902 21.4399 2.95371 21.3162 3.00152C20.8549 3.18152 21.1502 3.5809 21.3724 3.82277C21.6621 4.13777 21.9771 4.43027 22.2246 4.78465C22.4187 5.06027 23.1274 5.81121 22.3259 5.61715C21.9659 5.52996 21.5721 5.52715 21.2037 5.5384C20.8549 5.54965 20.5118 5.62277 20.2277 5.8309C20.1349 5.8984 19.9887 6.01371 20.0196 6.14871C20.0449 6.26683 20.1855 6.33433 20.284 6.37933C20.6496 6.54527 21.063 6.60715 21.4512 6.69996C21.6199 6.74215 21.8055 6.7759 21.9574 6.8659C22.278 7.05996 21.7915 7.16683 21.648 7.23996C21.5159 7.30746 21.3724 7.3609 21.2402 7.43402C21.0715 7.52683 20.9055 7.62246 20.7452 7.73215C20.658 7.79402 20.5709 7.8559 20.4921 7.92902C20.2896 8.11465 20.073 8.60402 20.5202 8.60402C20.7087 8.60402 20.8943 8.58433 21.0799 8.56183C21.2965 8.53371 22.1402 8.28058 22.2612 8.56746C22.3287 8.73058 22.1402 8.91621 22.0671 9.0484C21.9096 9.3409 21.7746 9.64746 21.6959 9.96808C21.6284 10.2493 21.5102 10.795 21.9152 10.8765C22.264 10.9468 22.5818 10.5418 22.7927 10.3225C23.0824 10.0215 23.3524 9.68121 23.7265 9.48152C24.3227 9.16371 24.168 10.1031 24.1371 10.4715C24.1062 10.8484 24.1315 11.2365 24.1315 11.6134C24.1315 11.7625 24.1118 11.9565 24.289 12.01C25.0118 12.2237 25.144 10.8512 25.3015 10.4209C25.5265 9.79933 26.0524 10.4546 26.2577 10.7359C26.3843 10.9103 27.0284 12.1928 27.2787 11.5684C27.3687 11.3434 27.318 11.0368 27.318 10.795C27.318 10.5418 27.2449 10.2887 27.1774 10.0525C27.1465 9.9484 27.1043 9.84715 27.079 9.74308C27.0537 9.6334 27.034 9.56871 27.1605 9.55465C27.5937 9.50402 28.024 9.7459 28.4093 9.90902C28.5359 9.96246 29.6355 10.3871 29.6918 10.12C29.7762 9.71777 29.4752 9.33527 29.2221 9.05965C29.0646 8.88808 28.8959 8.7334 28.7215 8.57871C28.5977 8.46902 28.429 8.37902 28.5752 8.21027C28.6258 8.15402 28.6737 8.13433 28.7496 8.13152C28.9887 8.12308 29.239 8.16527 29.4809 8.16527C29.7115 8.16808 30.094 8.27215 30.2965 8.13152C30.6565 7.88402 30.1109 7.34121 30.0096 7.08808C29.914 6.84902 29.7087 6.64933 29.5118 6.4834C29.3073 6.30882 29.0755 6.16913 28.8255 6.06996C28.699 6.01933 28.5696 5.98277 28.4374 5.95746C28.4009 5.94902 28.024 5.9209 28.024 5.91808C27.9143 5.52996 29.4359 4.40496 29.6974 3.95496C29.3065 3.8734 28.7468 3.8734 28.353 3.95496C28.0212 4.02527 27.7315 4.2109 27.4137 4.30933C27.3124 4.34027 27.1071 4.41902 27.003 4.35715C26.8934 4.28965 26.958 4.11527 26.9918 4.01965C27.0424 3.88183 27.1746 3.73558 27.273 3.62308C27.4502 3.41496 27.8468 2.98465 27.318 2.94527C26.8455 2.91152 26.3674 3.28277 25.9934 3.53308C25.8471 3.63152 25.7177 3.76652 25.5743 3.8734C25.4984 3.92965 25.4393 3.99715 25.338 3.93527C25.2705 3.89308 25.234 3.79746 25.2424 3.72152C25.2649 3.53308 25.338 3.35027 25.4027 3.17308C25.4927 2.9284 25.6868 2.57683 25.6362 2.31246C25.5799 2.01433 25.2452 2.15777 25.0905 2.28715C24.9162 2.43058 24.7868 2.62465 24.6546 2.79902C24.5112 2.98465 24.3846 3.18152 24.2721 3.38683C24.1934 3.53308 24.1709 3.6934 24.0724 3.8284C23.988 3.92402 23.9234 3.96902 23.853 3.98027Z" fill="#FFC8AF"/>
<path d="M35.3166 3.85876C34.4616 2.78438 33.0413 2.58469 31.7532 2.85469C30.991 3.015 30.4004 3.55219 29.686 3.82782C28.8873 4.13438 27.9901 4.08938 27.2082 4.43251C25.4644 5.19188 24.7698 7.92563 26.8791 8.69907C27.481 8.92126 28.1504 9.04219 28.786 8.90157C29.6326 8.71594 30.1754 7.93125 31.0107 7.72594C31.5929 7.5825 32.206 7.66125 32.7938 7.54876C33.0357 7.50094 33.2776 7.44188 33.511 7.36594C34.1073 7.17469 34.7457 6.89626 35.1985 6.45188C35.8988 5.76001 35.9129 4.60688 35.3166 3.85876Z" fill="#FF6F61"/>
<path d="M33.5251 6.16501C33.196 6.30845 32.8416 6.4097 32.507 6.45189C31.922 6.52782 31.3398 6.40689 30.7407 6.55033C29.911 6.74439 29.2754 7.45876 28.4598 7.68657C27.4585 7.96782 26.6963 7.56564 26.6907 6.51095C26.6879 6.14532 26.8763 5.94564 27.1885 5.74876C27.8354 5.33814 28.6482 5.31282 29.3682 5.09907C29.6579 5.0147 29.9532 4.89095 30.2373 4.7672C30.496 4.6547 30.7266 4.48595 30.9741 4.3397C31.5479 4.0022 32.462 3.83345 33.1173 3.89532C33.7979 3.96001 34.6726 4.08658 34.6698 4.93033C34.667 5.44783 34.4982 5.59689 34.0791 5.8697C33.9076 5.9822 33.722 6.08064 33.5251 6.16501Z" fill="#FFA07A"/>
</g>
<defs>
<clipPath id="clip0_76_3205">
<rect width="36" height="36" fill="white"/>
</clipPath>
</defs>
</svg>
