<svg width="13" height="13" viewBox="0 0 13 13" fill="none" xmlns="http://www.w3.org/2000/svg">
<path d="M5.69265 0.501564C5.76699 0.351005 5.88196 0.224242 6.02457 0.135607C6.16718 0.0469725 6.33174 0 6.49965 0C6.66756 0 6.83212 0.0469725 6.97473 0.135607C7.11735 0.224242 7.23232 0.351005 7.30665 0.501564L8.82765 3.58356L12.2287 4.07756C12.3949 4.10154 12.5511 4.17158 12.6797 4.27974C12.8082 4.3879 12.9039 4.52988 12.9559 4.6896C13.0079 4.84933 13.0142 5.02042 12.9741 5.18353C12.9339 5.34664 12.8489 5.49526 12.7287 5.61256L10.2667 8.01256L10.8477 11.3996C10.8759 11.565 10.8573 11.7351 10.7939 11.8906C10.7306 12.046 10.625 12.1807 10.4892 12.2793C10.3533 12.3779 10.1926 12.4366 10.0251 12.4486C9.85771 12.4607 9.69024 12.4257 9.54165 12.3476L6.49965 10.7496L3.45765 12.3496C3.3089 12.4279 3.1412 12.4629 2.97354 12.4508C2.80588 12.4387 2.64497 12.3799 2.50903 12.281C2.37309 12.1821 2.26756 12.0471 2.2044 11.8913C2.14124 11.7356 2.12297 11.5652 2.15165 11.3996L2.73165 8.01256L0.271652 5.61356C0.151429 5.49633 0.0664032 5.34779 0.0261888 5.18475C-0.0140256 5.02171 -0.00782486 4.85068 0.0440899 4.69098C0.0960046 4.53128 0.191563 4.38929 0.31996 4.28107C0.448357 4.17284 0.604471 4.1027 0.770652 4.07856L4.17065 3.58456L5.69265 0.501564Z" fill="url(#paint0_linear_50_1525)"/>
<defs>
<linearGradient id="paint0_linear_50_1525" x1="12.9987" y1="12.7316" x2="-0.376349" y2="0.119565" gradientUnits="userSpaceOnUse">
<stop stop-color="#FF6F47"/>
<stop offset="1" stop-color="#FFCD0F"/>
</linearGradient>
</defs>
</svg>
